<svg xmlns="http://www.w3.org/2000/svg" width="300" height="250" viewBox="0 0 300 250"><g fill="none" stroke="#707070" stroke-width="1" opacity="0"><rect width="300" height="250" stroke="none"/><rect x="0.5" y="0.5" width="299" height="249" fill="none"/></g><g transform="translate(42 62)"><path d="M178.854,129.946,51.016,56.143l-.027,1.078,127.838,73.8,88.3-51.313.027-1.078Z" transform="translate(-50.99 -4.83)" fill="#bababa"/><g transform="translate(0.027)"><path d="M267.135,111.35,197.357,151.9l-18.52,10.763-25.791-14.89L51,88.86l88.3-51.313Z" transform="translate(-50.999 -37.547)" fill="#ededed"/></g><g transform="translate(43.028 25.264)"><g transform="translate(74.416 67.955)"><path d="M117.324,73.685c5.439,3.14,5.439,8.231,0,11.369s-14.255,3.14-19.694,0-5.439-8.228,0-11.369S111.886,70.544,117.324,73.685Z" transform="translate(-93.552 -71.329)" fill="#ba4343"/><path d="M97.817,73.79c-4.363,2.519-4.363,6.62,0,9.139a17.529,17.529,0,0,0,15.825,0c4.363-2.519,4.363-6.62,0-9.139A17.529,17.529,0,0,0,97.817,73.79Zm14.307,8.262a14.151,14.151,0,0,1-12.79,0c-3.526-2.036-3.526-5.348,0-7.384a14.151,14.151,0,0,1,12.79,0C115.651,76.7,115.651,80.016,112.124,82.052Z" transform="translate(-91.804 -70.321)" fill="#ba4343" opacity="0.6"/></g><g opacity="0.3"><path d="M136.607,48.531,69.751,87.26l-3.167-1.829L133.439,46.7Z" transform="translate(-66.583 -46.703)" fill="#828282"/><path d="M139.021,49.926,72.165,88.655,69,86.826,135.854,48.1Z" transform="translate(-62.335 -44.25)" fill="#828282"/><path d="M131.387,53.422,74.58,86.349,71.412,84.52,128.22,51.593Z" transform="translate(-58.087 -38.098)" fill="#828282"/><path d="M129.105,55.8,76.995,86.014l-3.168-1.829L125.938,53.97Z" transform="translate(-53.839 -33.916)" fill="#828282"/><g transform="translate(34.201 19.746)"><path d="M149,55.688,82.145,94.416l-3.168-1.829,66.856-38.729Z" transform="translate(-78.978 -53.859)" fill="#828282"/><path d="M141.367,59.184,84.56,92.112l-3.168-1.829L138.2,57.355Z" transform="translate(-74.73 -47.707)" fill="#828282"/><path d="M139.085,61.561,86.974,91.776l-3.167-1.829,52.11-30.215Z" transform="translate(-70.481 -43.525)" fill="#828282"/><path d="M141.5,62.955,89.389,93.171l-3.168-1.829,52.111-30.215Z" transform="translate(-66.233 -41.072)" fill="#828282"/><path d="M147.011,64.518,107.532,87.409l-.639-.369,39.479-22.891Z" transform="translate(-29.865 -35.754)" fill="#828282"/></g></g></g><path d="M136.247,62.408a36.44,36.44,0,0,0-6.06,7.781q-1.039,1.031-1.967,2.1a.25.25,0,0,0-.149.041,7.907,7.907,0,0,0-1.333,1.236,13.84,13.84,0,0,0-3.066,3.615,8.9,8.9,0,0,1,1.369-3.929c.03-.05-.008-.108-.091-.132a.27.27,0,0,0-.24.033,13.859,13.859,0,0,0-3.722,4.989,5.5,5.5,0,0,1,1.148-3.344c.036-.052,0-.113-.091-.138a.282.282,0,0,0-.246.039l-4.81,4.415-.091.086a14.223,14.223,0,0,0,.93-1.755,1.206,1.206,0,0,0,.155.025.975.975,0,0,0,.657-.185,1.25,1.25,0,0,0,.345-1.4.661.661,0,0,0-.5-.2,7.23,7.23,0,0,0,.262-1.247c.005-.05-.047-.094-.13-.11a.247.247,0,0,0-.218.044,7.1,7.1,0,0,0-1.349,1.65c-.074.028-.149.058-.224.088-.061-.1-.121-.2-.177-.3-.428-.737-.764-1.319-1.388-1.283-.425.028-.651.527-.455,2.58l-.061.036a8.726,8.726,0,0,0-1.661,1.159,4.488,4.488,0,0,0-.654.875c-.4.709.353,1.25,1.225,1.449a3.69,3.69,0,0,0,1.639.006l.008.072a3.313,3.313,0,0,1-.328,2.323,4.673,4.673,0,0,1-3.1,1.5,7.368,7.368,0,0,1-3.987-.395.269.269,0,0,0-.265.017c-.066.05-.05.119.03.155a7.957,7.957,0,0,0,4.324.433,5.044,5.044,0,0,0,3.35-1.634,3.419,3.419,0,0,0,.356-2.417c-.006-.041-.014-.1-.025-.177a2,2,0,0,0,.389-.221.253.253,0,0,0,.171-.05l5.022-4.614a3.868,3.868,0,0,0-.447,3.209.222.222,0,0,0,.2.072c.091-.006.163-.044.171-.094a12.594,12.594,0,0,1,3.093-4.856,9.242,9.242,0,0,0-1.035,4.258c0,.058.072.1.168.113a.206.206,0,0,0,.207-.088,9.708,9.708,0,0,1,2.368-3.507,4.7,4.7,0,0,0-.361.982c-.014.055.047.108.141.121a.241.241,0,0,0,.224-.066,35.158,35.158,0,0,1,3.67-4.567,29.35,29.35,0,0,0-1.347,2.991c-.058.155-1.418,3.769-.237,4.335a1.041,1.041,0,0,0,.712.039,1,1,0,0,0,.224-.091c.637-.37.825-1.54,1.082-3.446.27-2.023.607-4.539,1.9-6.1.041-.052.008-.116-.08-.143a.278.278,0,0,0-.254.036c-.171.157-.342.315-.51.472a37.03,37.03,0,0,1,5.45-6.769c.052-.052.022-.121-.069-.152A.27.27,0,0,0,136.247,62.408Zm-17.61,13.565a1.123,1.123,0,0,1-.3,1.178.433.433,0,0,1-.3.1.421.421,0,0,1-.11-.025c.19-.444.356-.891.491-1.319h.028C118.567,75.907,118.611,75.937,118.636,75.973Zm-.348-1.073c-.05.257-.119.533-.2.814a4.746,4.746,0,0,0-.53.13A7.449,7.449,0,0,1,118.289,74.9Zm-.927,1.256a5.773,5.773,0,0,1,.651-.2c-.119.364-.259.74-.417,1.115a2.081,2.081,0,0,1-.472-.494C117.2,76.434,117.279,76.293,117.361,76.155Zm-2.072-1.41.011-.006c.315-.019.7.648.982,1.137l.215.367c-.441.193-.9.419-1.336.657C115.041,75.587,115.085,74.864,115.289,74.745Zm-.036,5.643a2.953,2.953,0,0,1-1.462.03c-.737-.171-1.333-.6-1-1.181a4.377,4.377,0,0,1,.626-.836,7.453,7.453,0,0,1,1.418-1.01c.075.706.2,1.578.37,2.654Zm.6-.328a1.263,1.263,0,0,1-.237.177l-.036-.21c-.179-1.126-.306-2.072-.386-2.842.466-.262.969-.516,1.443-.728.028.044.061.091.091.135A6.8,6.8,0,0,0,115.849,80.06Zm1.112-3.162a1.7,1.7,0,0,0,.53.419,12.937,12.937,0,0,1-1.275,2.29A7.075,7.075,0,0,1,116.961,76.9Zm9.716-2.71a6.054,6.054,0,0,1,.392-.516l.022-.022Q126.88,73.919,126.677,74.188Zm3.01.822c-.221,1.636-.43,3.184-1.079,3.353a.448.448,0,0,1-.317-.006c-.7-.337-.207-2.61.367-4.12a28.34,28.34,0,0,1,1.876-3.957c.135-.135.276-.27.414-.406A16.448,16.448,0,0,0,129.688,75.01Z" transform="translate(48.569 6.094)" fill="#4e4f4f"/></g></svg>