<svg xmlns="http://www.w3.org/2000/svg" width="40.85" height="40.85" viewBox="0 0 40.85 40.85"><defs><style>.a,.b{fill:none;}.b{stroke:#fff;stroke-linecap:round;stroke-width:3px;}.c,.d{stroke:none;}.d{fill:rgba(255,255,255,0.1);}</style></defs><g transform="translate(-948 -661)"><g class="a" transform="translate(948 661)"><path class="c" d="M20.425,0A20.425,20.425,0,1,1,0,20.425,20.425,20.425,0,0,1,20.425,0Z"/><path class="d" d="M 20.4248046875 2.999996185302734 C 15.77047538757324 2.999996185302734 11.39471435546875 4.812496185302734 8.103603363037109 8.103603363037109 C 4.812496185302734 11.39471435546875 2.999996185302734 15.77047538757324 2.999996185302734 20.4248046875 C 2.999996185302734 25.07913589477539 4.812496185302734 29.45489501953125 8.103603363037109 32.74600601196289 C 11.39471435546875 36.03710556030273 15.77046394348145 37.84960556030273 20.4248046875 37.84960556030273 C 25.07913589477539 37.84960556030273 29.45489501953125 36.03711318969727 32.74600601196289 32.74600601196289 C 36.03711318969727 29.45489501953125 37.84960556030273 25.07913589477539 37.84960556030273 20.4248046875 C 37.84960556030273 15.77046394348145 36.03710556030273 11.39471435546875 32.74600601196289 8.103603363037109 C 29.45489501953125 4.812496185302734 25.07913589477539 2.999996185302734 20.4248046875 2.999996185302734 M 20.4248046875 -3.814697265625e-06 C 31.70511436462402 -3.814697265625e-06 40.84960556030273 9.144495010375977 40.84960556030273 20.4248046875 C 40.84960556030273 31.70511436462402 31.70511436462402 40.84960556030273 20.4248046875 40.84960556030273 C 9.144495010375977 40.84960556030273 -3.814697265625e-06 31.70511436462402 -3.814697265625e-06 20.4248046875 C -3.814697265625e-06 9.144495010375977 9.144495010375977 -3.814697265625e-06 20.4248046875 -3.814697265625e-06 Z"/></g><path class="b" d="M3568.51,2041.331l5.606,5.606,9.208-9.207" transform="translate(-2607.548 -1360.626)"/></g></svg>