<svg xmlns="http://www.w3.org/2000/svg" xmlns:xlink="http://www.w3.org/1999/xlink" width="331.957" height="253" viewBox="0 0 331.957 253"><defs><filter id="a" x="0" y="115.582" width="163.503" height="103.664" filterUnits="userSpaceOnUse"><feOffset dy="3" input="SourceAlpha"/><feGaussianBlur stdDeviation="3" result="b"/><feFlood flood-opacity="0.161"/><feComposite operator="in" in2="b"/><feComposite in="SourceGraphic"/></filter><filter id="c" x="138" y="135.027" width="163.503" height="103.664" filterUnits="userSpaceOnUse"><feOffset dy="3" input="SourceAlpha"/><feGaussianBlur stdDeviation="3" result="d"/><feFlood flood-opacity="0.161"/><feComposite operator="in" in2="d"/><feComposite in="SourceGraphic"/></filter><filter id="e" x="102.617" y="0" width="229.339" height="166.364" filterUnits="userSpaceOnUse"><feOffset input="SourceAlpha"/><feGaussianBlur stdDeviation="10" result="f"/><feFlood flood-opacity="0.161"/><feComposite operator="in" in2="f"/><feComposite in="SourceGraphic"/></filter><filter id="g" x="148.546" y="37.394" width="159.099" height="84.316" filterUnits="userSpaceOnUse"><feOffset dy="10" input="SourceAlpha"/><feGaussianBlur stdDeviation="5" result="h"/><feFlood flood-opacity="0.2"/><feComposite operator="in" in2="h"/><feComposite in="SourceGraphic"/></filter><radialGradient id="i" cx="0.5" cy="0.5" r="0.5" gradientTransform="translate(0)" gradientUnits="objectBoundingBox"><stop offset="0" stop-color="#74aaf8"/><stop offset="1" stop-color="#4072ee" stop-opacity="0.2"/></radialGradient></defs><g transform="translate(5 3)"><g transform="translate(4 27)"><g transform="translate(0 91.582)"><g transform="matrix(1, 0, 0, 1, -9, -121.58)" filter="url(#a)"><rect width="145.503" height="85.664" rx="5" transform="translate(9 121.58)" fill="#132945"/></g><g transform="translate(11.536 18.818)"><g transform="translate(99.812 0)"><path d="M.391-1.261V-3.353h.841a.637.637,0,0,1,.479.181.62.62,0,0,1,.176.449.617.617,0,0,1-.177.448.638.638,0,0,1-.479.181H.651v.832Zm.26-1.063H1.2a.421.421,0,0,0,.3-.11.378.378,0,0,0,.116-.288A.378.378,0,0,0,1.5-3.01a.421.421,0,0,0-.3-.11H.651ZM2.222-1.261V-2.776h.234v.242a.8.8,0,0,1,.228-.2.542.542,0,0,1,.277-.076v.242a.85.85,0,0,0-.09-.006.473.473,0,0,0-.236.074.466.466,0,0,0-.179.168v1.072ZM3.257-1.62a.885.885,0,0,1-.09-.4.875.875,0,0,1,.09-.4.706.706,0,0,1,.263-.286.737.737,0,0,1,.4-.107.737.737,0,0,1,.4.107.7.7,0,0,1,.262.286.881.881,0,0,1,.09.4.891.891,0,0,1-.09.4.7.7,0,0,1-.262.289.733.733,0,0,1-.4.108.733.733,0,0,1-.4-.108A.709.709,0,0,1,3.257-1.62Zm.158-.4a.65.65,0,0,0,.135.416.443.443,0,0,0,.368.171.455.455,0,0,0,.272-.083.5.5,0,0,0,.172-.214.723.723,0,0,0,.057-.29.714.714,0,0,0-.057-.288.5.5,0,0,0-.172-.213A.455.455,0,0,0,3.917-2.6a.458.458,0,0,0-.273.083.5.5,0,0,0-.173.214A.715.715,0,0,0,3.415-2.021Zm1.449-.548v-.207h.251v-.116a.515.515,0,0,1,.119-.361.411.411,0,0,1,.319-.13.475.475,0,0,1,.233.049l-.06.179a.271.271,0,0,0-.135-.035.218.218,0,0,0-.18.077.346.346,0,0,0-.062.222v.116h.308v.207H5.349v1.308H5.115V-2.569Zm1.081-.469A.152.152,0,0,1,5.9-3.149a.153.153,0,0,1,.047-.113.153.153,0,0,1,.113-.047.148.148,0,0,1,.111.047.156.156,0,0,1,.045.113.153.153,0,0,1-.045.112.15.15,0,0,1-.111.046A.157.157,0,0,1,5.945-3.038ZM5.939-1.261V-2.776h.236v1.515Zm.5-1.308v-.207h.251v-.415H6.93v.415h.308v.207H6.93v.94a.237.237,0,0,0,.038.142.129.129,0,0,0,.112.053A.2.2,0,0,0,7.241-1.5l.069.179a.387.387,0,0,1-.279.1.33.33,0,0,1-.253-.093.37.37,0,0,1-.087-.263v-.991ZM8.17-1.261l.844-2.092h.323l.841,2.092h-.3L9.7-1.728H8.654l-.185.467Zm.562-.7h.888L9.175-3.087Zm1.709.7V-2.776h.234v.219a.644.644,0,0,1,.2-.173.557.557,0,0,1,.293-.084.425.425,0,0,1,.266.079.381.381,0,0,1,.138.2.611.611,0,0,1,.211-.2.568.568,0,0,1,.3-.086A.411.411,0,0,1,12.4-2.7a.487.487,0,0,1,.107.343v1.095H12.27V-2.29q0-.314-.28-.314a.437.437,0,0,0-.227.068.517.517,0,0,0-.175.165v1.11h-.234V-2.29q0-.314-.28-.314a.418.418,0,0,0-.222.07.569.569,0,0,0-.176.166v1.107Zm2.535-.358a.885.885,0,0,1-.09-.4.875.875,0,0,1,.09-.4.706.706,0,0,1,.263-.286.737.737,0,0,1,.4-.107.737.737,0,0,1,.4.107.7.7,0,0,1,.262.286.881.881,0,0,1,.09.4.891.891,0,0,1-.09.4.7.7,0,0,1-.262.289.733.733,0,0,1-.4.108.733.733,0,0,1-.4-.108A.709.709,0,0,1,12.976-1.62Zm.158-.4a.65.65,0,0,0,.135.416.443.443,0,0,0,.368.171.455.455,0,0,0,.272-.083.5.5,0,0,0,.172-.214.723.723,0,0,0,.057-.29.714.714,0,0,0-.057-.288.5.5,0,0,0-.172-.213.455.455,0,0,0-.272-.083.458.458,0,0,0-.273.083.5.5,0,0,0-.173.214A.715.715,0,0,0,13.134-2.021Zm1.634.314V-2.776H15v1a.344.344,0,0,0,.087.267.372.372,0,0,0,.254.077A.53.53,0,0,0,15.6-1.5a.549.549,0,0,0,.191-.162V-2.776h.236v1.515h-.236v-.213a.786.786,0,0,1-.237.179.66.66,0,0,1-.3.072A.427.427,0,0,1,14.768-1.707Zm1.727.446V-2.776h.234v.219a.754.754,0,0,1,.236-.181.663.663,0,0,1,.308-.076.428.428,0,0,1,.479.49v1.063H17.52v-.991a.353.353,0,0,0-.089-.272.364.364,0,0,0-.253-.08.508.508,0,0,0-.253.069.623.623,0,0,0-.2.167v1.107ZM18.02-2.569v-.207h.251v-.415h.239v.415h.308v.207H18.51v.94a.237.237,0,0,0,.038.142.129.129,0,0,0,.112.053.2.2,0,0,0,.161-.066l.069.179a.387.387,0,0,1-.279.1.33.33,0,0,1-.253-.093.37.37,0,0,1-.087-.263v-.991Z" transform="translate(3.038 49.782)" fill="#fff" opacity="0.5"/><path d="M.6-4.824l-.085.251H1.807a.584.584,0,0,1-.236.376,1.261,1.261,0,0,1-.753.191H.547v.286a.623.623,0,0,1,.346.1,1.172,1.172,0,0,1,.266.276l.9,1.214H2.62L1.576-3.479a1.4,1.4,0,0,0-.266-.3,1.25,1.25,0,0,0,.657-.3.792.792,0,0,0,.251-.5H2.79l.085-.251H2.223A.911.911,0,0,0,1.9-5.461h.9l.085-.251H.6l-.085.251H.979a.911.911,0,0,1,.617.2.7.7,0,0,1,.216.442ZM3.461-2.977a.747.747,0,0,1,.23-.546,1.34,1.34,0,0,1,.568-.333,1.45,1.45,0,0,1-.366-.158.846.846,0,0,1-.268-.267.681.681,0,0,1-.108-.376.757.757,0,0,1,.1-.388.764.764,0,0,1,.266-.272,1.372,1.372,0,0,1,.365-.154,1.607,1.607,0,0,1,.414-.053,1.612,1.612,0,0,1,.413.053,1.388,1.388,0,0,1,.368.154.771.771,0,0,1,.268.272.75.75,0,0,1,.1.388.67.67,0,0,1-.212.506,1.269,1.269,0,0,1-.535.3,1.3,1.3,0,0,1,.567.332.753.753,0,0,1,.229.548.776.776,0,0,1-.344.66,1.42,1.42,0,0,1-.854.249,1.636,1.636,0,0,1-.6-.107,1,1,0,0,1-.434-.316A.77.77,0,0,1,3.461-2.977Zm.424-.047a.5.5,0,0,0,.227.423.927.927,0,0,0,.55.16.929.929,0,0,0,.549-.16.494.494,0,0,0,.228-.423.463.463,0,0,0-.061-.233.586.586,0,0,0-.152-.178,1.151,1.151,0,0,0-.2-.124,1.288,1.288,0,0,0-.2-.08.937.937,0,0,0-.16-.033.937.937,0,0,0-.16.033,1.288,1.288,0,0,0-.2.08,1.151,1.151,0,0,0-.2.124.586.586,0,0,0-.152.178A.463.463,0,0,0,3.885-3.023ZM3.939-4.6A.407.407,0,0,0,4-4.392a.537.537,0,0,0,.137.157.949.949,0,0,0,.187.108,1.293,1.293,0,0,0,.186.069q.078.021.154.033.076-.012.156-.033a1.267,1.267,0,0,0,.187-.069.985.985,0,0,0,.189-.108.529.529,0,0,0,.138-.157A.407.407,0,0,0,5.39-4.6a.47.47,0,0,0-.208-.4.868.868,0,0,0-.519-.149.856.856,0,0,0-.518.149A.473.473,0,0,0,3.939-4.6ZM6.407-1.646a.794.794,0,0,0,.218-.213.565.565,0,0,0,.108-.255.177.177,0,0,1-.071.01.226.226,0,0,1-.17-.074.253.253,0,0,1-.07-.181A.268.268,0,0,1,6.5-2.55a.249.249,0,0,1,.187-.081.287.287,0,0,1,.225.1A.409.409,0,0,1,7-2.249a.86.86,0,0,1-.113.425,1.014,1.014,0,0,1-.292.332ZM7.375-3.8A2.735,2.735,0,0,1,7.419-4.3a2.088,2.088,0,0,1,.143-.466,1.542,1.542,0,0,1,.245-.393,1.077,1.077,0,0,1,.364-.27,1.134,1.134,0,0,1,.485-.1,1.128,1.128,0,0,1,.483.1,1.077,1.077,0,0,1,.364.27,1.542,1.542,0,0,1,.245.393,2.085,2.085,0,0,1,.143.467,2.741,2.741,0,0,1,.044.494,2.741,2.741,0,0,1-.044.494,2.108,2.108,0,0,1-.143.468,1.557,1.557,0,0,1-.245.4,1.083,1.083,0,0,1-.364.272,1.117,1.117,0,0,1-.483.1,1.123,1.123,0,0,1-.485-.1,1.083,1.083,0,0,1-.364-.272,1.551,1.551,0,0,1-.245-.4,2.135,2.135,0,0,1-.143-.468A2.721,2.721,0,0,1,7.375-3.8Zm.429,0a2.582,2.582,0,0,0,.045.5,1.792,1.792,0,0,0,.141.431.78.78,0,0,0,.267.316.694.694,0,0,0,.4.116.694.694,0,0,0,.4-.116.78.78,0,0,0,.267-.316A1.792,1.792,0,0,0,9.463-3.3a2.582,2.582,0,0,0,.045-.5,2.807,2.807,0,0,0-.027-.4,1.862,1.862,0,0,0-.091-.366,1.2,1.2,0,0,0-.159-.308.7.7,0,0,0-.244-.207.708.708,0,0,0-.332-.077.708.708,0,0,0-.332.077.7.7,0,0,0-.244.207,1.2,1.2,0,0,0-.159.308A1.863,1.863,0,0,0,7.83-4.2,2.807,2.807,0,0,0,7.8-3.8Zm2.641,0a2.735,2.735,0,0,1,.044-.495,2.088,2.088,0,0,1,.143-.466,1.542,1.542,0,0,1,.245-.393,1.077,1.077,0,0,1,.364-.27,1.134,1.134,0,0,1,.485-.1,1.128,1.128,0,0,1,.483.1,1.077,1.077,0,0,1,.364.27,1.542,1.542,0,0,1,.245.393,2.085,2.085,0,0,1,.143.467,2.741,2.741,0,0,1,.044.494,2.741,2.741,0,0,1-.044.494,2.108,2.108,0,0,1-.143.468,1.557,1.557,0,0,1-.245.4,1.083,1.083,0,0,1-.364.272,1.117,1.117,0,0,1-.483.1,1.123,1.123,0,0,1-.485-.1,1.084,1.084,0,0,1-.364-.272,1.551,1.551,0,0,1-.245-.4,2.134,2.134,0,0,1-.143-.468A2.721,2.721,0,0,1,10.445-3.8Zm.429,0a2.582,2.582,0,0,0,.045.5,1.792,1.792,0,0,0,.141.431.78.78,0,0,0,.267.316.694.694,0,0,0,.4.116.694.694,0,0,0,.4-.116.78.78,0,0,0,.267-.316,1.792,1.792,0,0,0,.141-.431,2.582,2.582,0,0,0,.045-.5,2.807,2.807,0,0,0-.027-.4,1.863,1.863,0,0,0-.091-.366,1.2,1.2,0,0,0-.159-.308.7.7,0,0,0-.244-.207.708.708,0,0,0-.332-.077.708.708,0,0,0-.332.077.7.7,0,0,0-.244.207,1.2,1.2,0,0,0-.159.308A1.863,1.863,0,0,0,10.9-4.2,2.807,2.807,0,0,0,10.874-3.8Zm2.519,2.154a.794.794,0,0,0,.218-.213.565.565,0,0,0,.108-.255.177.177,0,0,1-.071.01.226.226,0,0,1-.17-.074.253.253,0,0,1-.07-.181.268.268,0,0,1,.077-.191.249.249,0,0,1,.187-.081.287.287,0,0,1,.225.1.409.409,0,0,1,.091.278.86.86,0,0,1-.113.425,1.014,1.014,0,0,1-.292.332ZM14.36-3.8A2.735,2.735,0,0,1,14.4-4.3a2.088,2.088,0,0,1,.143-.466,1.542,1.542,0,0,1,.245-.393,1.077,1.077,0,0,1,.364-.27,1.134,1.134,0,0,1,.485-.1,1.128,1.128,0,0,1,.483.1,1.077,1.077,0,0,1,.364.27,1.542,1.542,0,0,1,.245.393,2.085,2.085,0,0,1,.143.467,2.741,2.741,0,0,1,.044.494,2.741,2.741,0,0,1-.044.494,2.108,2.108,0,0,1-.143.468,1.557,1.557,0,0,1-.245.4,1.083,1.083,0,0,1-.364.272,1.117,1.117,0,0,1-.483.1,1.123,1.123,0,0,1-.485-.1,1.083,1.083,0,0,1-.364-.272,1.551,1.551,0,0,1-.245-.4,2.135,2.135,0,0,1-.143-.468A2.721,2.721,0,0,1,14.36-3.8Zm.429,0a2.582,2.582,0,0,0,.045.5,1.792,1.792,0,0,0,.141.431.78.78,0,0,0,.267.316.694.694,0,0,0,.4.116.694.694,0,0,0,.4-.116.78.78,0,0,0,.267-.316,1.792,1.792,0,0,0,.141-.431,2.582,2.582,0,0,0,.045-.5,2.806,2.806,0,0,0-.027-.4,1.863,1.863,0,0,0-.091-.366,1.2,1.2,0,0,0-.159-.308.7.7,0,0,0-.244-.207.708.708,0,0,0-.332-.077.708.708,0,0,0-.332.077.7.7,0,0,0-.244.207,1.2,1.2,0,0,0-.159.308,1.863,1.863,0,0,0-.091.366A2.807,2.807,0,0,0,14.789-3.8Zm2.641,0a2.735,2.735,0,0,1,.044-.495,2.088,2.088,0,0,1,.143-.466,1.542,1.542,0,0,1,.245-.393,1.077,1.077,0,0,1,.364-.27,1.134,1.134,0,0,1,.485-.1,1.128,1.128,0,0,1,.483.1,1.077,1.077,0,0,1,.364.27,1.542,1.542,0,0,1,.245.393,2.085,2.085,0,0,1,.143.467,2.741,2.741,0,0,1,.044.494,2.741,2.741,0,0,1-.044.494,2.108,2.108,0,0,1-.143.468,1.557,1.557,0,0,1-.245.4,1.083,1.083,0,0,1-.364.272,1.117,1.117,0,0,1-.483.1,1.123,1.123,0,0,1-.485-.1,1.083,1.083,0,0,1-.364-.272,1.551,1.551,0,0,1-.245-.4,2.135,2.135,0,0,1-.143-.468A2.721,2.721,0,0,1,17.431-3.8Zm.429,0a2.582,2.582,0,0,0,.045.5,1.792,1.792,0,0,0,.141.431.78.78,0,0,0,.267.316.694.694,0,0,0,.4.116.694.694,0,0,0,.4-.116.78.78,0,0,0,.267-.316,1.792,1.792,0,0,0,.141-.431,2.582,2.582,0,0,0,.045-.5,2.807,2.807,0,0,0-.027-.4,1.863,1.863,0,0,0-.091-.366,1.2,1.2,0,0,0-.159-.308.7.7,0,0,0-.244-.207.708.708,0,0,0-.332-.077.708.708,0,0,0-.332.077.7.7,0,0,0-.244.207,1.2,1.2,0,0,0-.159.308,1.863,1.863,0,0,0-.091.366A2.807,2.807,0,0,0,17.859-3.8Zm2.641,0a2.735,2.735,0,0,1,.044-.495,2.088,2.088,0,0,1,.143-.466,1.542,1.542,0,0,1,.245-.393,1.077,1.077,0,0,1,.364-.27,1.134,1.134,0,0,1,.485-.1,1.128,1.128,0,0,1,.483.1,1.077,1.077,0,0,1,.364.27,1.542,1.542,0,0,1,.245.393,2.085,2.085,0,0,1,.143.467,2.741,2.741,0,0,1,.044.494,2.741,2.741,0,0,1-.044.494,2.108,2.108,0,0,1-.143.468,1.557,1.557,0,0,1-.245.4,1.084,1.084,0,0,1-.364.272,1.117,1.117,0,0,1-.483.1,1.123,1.123,0,0,1-.485-.1,1.083,1.083,0,0,1-.364-.272,1.551,1.551,0,0,1-.245-.4,2.135,2.135,0,0,1-.143-.468A2.721,2.721,0,0,1,20.5-3.8Zm.429,0a2.582,2.582,0,0,0,.045.5,1.792,1.792,0,0,0,.141.431.78.78,0,0,0,.267.316.694.694,0,0,0,.4.116.694.694,0,0,0,.4-.116.78.78,0,0,0,.267-.316A1.792,1.792,0,0,0,22.59-3.3a2.582,2.582,0,0,0,.045-.5,2.807,2.807,0,0,0-.027-.4,1.863,1.863,0,0,0-.091-.366,1.2,1.2,0,0,0-.159-.308.7.7,0,0,0-.244-.207.708.708,0,0,0-.332-.077.708.708,0,0,0-.332.077.7.7,0,0,0-.244.207,1.2,1.2,0,0,0-.159.308,1.863,1.863,0,0,0-.091.366A2.807,2.807,0,0,0,20.93-3.8Z" transform="translate(-0.512 60.227)" fill="#fff"/><path d="M2,0H9.711a2,2,0,0,1,2,2V38.149a0,0,0,0,1,0,0H0a0,0,0,0,1,0,0V2A2,2,0,0,1,2,0Z" transform="translate(6.104)" fill="#4a77c3"/></g><g transform="translate(60.72 7.527)"><path d="M.6-4.824l-.085.251H1.807a.584.584,0,0,1-.236.376,1.261,1.261,0,0,1-.753.191H.547v.286a.623.623,0,0,1,.346.1,1.172,1.172,0,0,1,.266.276l.9,1.214H2.62L1.576-3.479a1.4,1.4,0,0,0-.266-.3,1.25,1.25,0,0,0,.657-.3.792.792,0,0,0,.251-.5H2.79l.085-.251H2.223A.911.911,0,0,0,1.9-5.461h.9l.085-.251H.6l-.085.251H.979a.911.911,0,0,1,.617.2.7.7,0,0,1,.216.442ZM3.363-2.977v-.345L4.8-5.476H5.37v2.132h.47v.368H5.37v.848H4.954v-.848Zm.417-.368H4.954V-5.089Zm2.48.368a.747.747,0,0,1,.23-.546,1.34,1.34,0,0,1,.568-.333,1.45,1.45,0,0,1-.366-.158.846.846,0,0,1-.268-.267.681.681,0,0,1-.108-.376.757.757,0,0,1,.1-.388.764.764,0,0,1,.266-.272,1.372,1.372,0,0,1,.365-.154,1.607,1.607,0,0,1,.414-.053,1.612,1.612,0,0,1,.413.053,1.388,1.388,0,0,1,.368.154.771.771,0,0,1,.268.272.75.75,0,0,1,.1.388.67.67,0,0,1-.212.506,1.269,1.269,0,0,1-.535.3,1.3,1.3,0,0,1,.567.332.753.753,0,0,1,.229.548.776.776,0,0,1-.344.66,1.42,1.42,0,0,1-.854.249,1.636,1.636,0,0,1-.6-.107,1,1,0,0,1-.434-.316A.77.77,0,0,1,6.26-2.977Zm.424-.047A.5.5,0,0,0,6.91-2.6a.927.927,0,0,0,.55.16.929.929,0,0,0,.549-.16.494.494,0,0,0,.228-.423.463.463,0,0,0-.061-.233.586.586,0,0,0-.152-.178,1.151,1.151,0,0,0-.2-.124,1.288,1.288,0,0,0-.2-.08.937.937,0,0,0-.16-.033.937.937,0,0,0-.16.033,1.288,1.288,0,0,0-.2.08,1.151,1.151,0,0,0-.2.124.586.586,0,0,0-.152.178A.463.463,0,0,0,6.684-3.023ZM6.737-4.6a.407.407,0,0,0,.058.212.537.537,0,0,0,.137.157.949.949,0,0,0,.187.108,1.292,1.292,0,0,0,.186.069q.078.021.154.033.076-.012.156-.033A1.267,1.267,0,0,0,7.8-4.127a.985.985,0,0,0,.189-.108.529.529,0,0,0,.138-.157A.407.407,0,0,0,8.188-4.6a.47.47,0,0,0-.208-.4.868.868,0,0,0-.519-.149.856.856,0,0,0-.518.149A.473.473,0,0,0,6.737-4.6ZM9.2-1.646a.794.794,0,0,0,.218-.213.565.565,0,0,0,.108-.255.177.177,0,0,1-.071.01.226.226,0,0,1-.17-.074.253.253,0,0,1-.07-.181A.268.268,0,0,1,9.3-2.55a.249.249,0,0,1,.187-.081.287.287,0,0,1,.225.1.409.409,0,0,1,.091.278.86.86,0,0,1-.113.425,1.014,1.014,0,0,1-.292.332Zm1.127-1.331a.747.747,0,0,1,.23-.546,1.34,1.34,0,0,1,.568-.333,1.45,1.45,0,0,1-.366-.158.846.846,0,0,1-.268-.267.681.681,0,0,1-.108-.376.757.757,0,0,1,.1-.388.764.764,0,0,1,.266-.272,1.372,1.372,0,0,1,.365-.154,1.607,1.607,0,0,1,.414-.053,1.612,1.612,0,0,1,.413.053,1.388,1.388,0,0,1,.368.154.771.771,0,0,1,.268.272.75.75,0,0,1,.1.388.67.67,0,0,1-.212.506,1.269,1.269,0,0,1-.535.3,1.3,1.3,0,0,1,.567.332.753.753,0,0,1,.229.548.776.776,0,0,1-.344.66,1.42,1.42,0,0,1-.854.249,1.636,1.636,0,0,1-.6-.107A1,1,0,0,1,10.5-2.49.77.77,0,0,1,10.332-2.977Zm.424-.047a.5.5,0,0,0,.227.423.927.927,0,0,0,.55.16.929.929,0,0,0,.549-.16.494.494,0,0,0,.228-.423.463.463,0,0,0-.061-.233.586.586,0,0,0-.152-.178,1.151,1.151,0,0,0-.2-.124,1.288,1.288,0,0,0-.2-.08.937.937,0,0,0-.16-.033.937.937,0,0,0-.16.033,1.288,1.288,0,0,0-.2.08,1.151,1.151,0,0,0-.2.124.587.587,0,0,0-.152.178A.463.463,0,0,0,10.756-3.023ZM10.81-4.6a.407.407,0,0,0,.058.212A.537.537,0,0,0,11-4.235a.949.949,0,0,0,.187.108,1.293,1.293,0,0,0,.186.069q.078.021.154.033.076-.012.156-.033a1.267,1.267,0,0,0,.187-.069.985.985,0,0,0,.189-.108.528.528,0,0,0,.138-.157A.407.407,0,0,0,12.26-4.6a.47.47,0,0,0-.208-.4.868.868,0,0,0-.519-.149.856.856,0,0,0-.518.149A.473.473,0,0,0,10.81-4.6Zm2.512,2,.257-.279a1.1,1.1,0,0,0,.921.446.781.781,0,0,0,.556-.2.674.674,0,0,0,.218-.513.68.68,0,0,0-.214-.526.787.787,0,0,0-.555-.2,1.08,1.08,0,0,0-.772.311l-.306-.105v-1.8h2.048V-5.1H13.843V-3.94a1.047,1.047,0,0,1,.341-.217,1.156,1.156,0,0,1,.444-.085,1.151,1.151,0,0,1,.4.071,1.07,1.07,0,0,1,.339.2.931.931,0,0,1,.236.337,1.152,1.152,0,0,1,.088.458,1.022,1.022,0,0,1-.341.8,1.237,1.237,0,0,1-.855.3A1.386,1.386,0,0,1,13.321-2.607Zm2.791-.37v-.345l1.433-2.154h.573v2.132h.47v.368h-.47v.848H17.7v-.848Zm.417-.368H17.7V-5.089Z" transform="translate(2.199 52.589)" fill="#fff"/><path d="M2,0H9.711a2,2,0,0,1,2,2V30.511a0,0,0,0,1,0,0H0a0,0,0,0,1,0,0V2A2,2,0,0,1,2,0Z" transform="translate(6.153 0)" fill="#689aef"/><g transform="translate(0 39.091)"><path d="M.19-1.56l.156-.2a.905.905,0,0,0,.281.217A.816.816,0,0,0,1-1.458a.734.734,0,0,0,.234-.034.386.386,0,0,0,.155-.089A.368.368,0,0,0,1.47-1.7.325.325,0,0,0,1.5-1.823a.271.271,0,0,0-.042-.151.321.321,0,0,0-.114-.106.967.967,0,0,0-.165-.072q-.093-.031-.2-.059L.773-2.267a1.213,1.213,0,0,1-.2-.074.813.813,0,0,1-.165-.1A.413.413,0,0,1,.3-2.6a.507.507,0,0,1-.042-.212.514.514,0,0,1,.2-.42.8.8,0,0,1,.517-.163.972.972,0,0,1,.74.3L1.561-2.9a.766.766,0,0,0-.6-.251.5.5,0,0,0-.309.093.288.288,0,0,0-.122.24.215.215,0,0,0,.042.132A.314.314,0,0,0,.682-2.6a1.118,1.118,0,0,0,.165.065q.093.029.2.057t.206.059a1.151,1.151,0,0,1,.2.08.818.818,0,0,1,.165.112.447.447,0,0,1,.114.162.562.562,0,0,1,.042.224.593.593,0,0,1-.043.225.606.606,0,0,1-.13.2.6.6,0,0,1-.241.142,1.1,1.1,0,0,1-.358.053,1.132,1.132,0,0,1-.462-.09A.979.979,0,0,1,.19-1.56Zm1.871-.168a.519.519,0,0,1,.046-.221.419.419,0,0,1,.122-.158A.559.559,0,0,1,2.4-2.2a.6.6,0,0,1,.191-.031.637.637,0,0,1,.5.2V-2.3a.28.28,0,0,0-.107-.232.43.43,0,0,0-.276-.085.61.61,0,0,0-.464.211l-.11-.164a.8.8,0,0,1,.606-.251.844.844,0,0,1,.229.029.577.577,0,0,1,.185.088.4.4,0,0,1,.127.16.561.561,0,0,1,.046.234v1.041H3.091v-.173a.64.64,0,0,1-.5.211A.561.561,0,0,1,2.4-1.259a.58.58,0,0,1-.169-.094.439.439,0,0,1-.123-.159A.5.5,0,0,1,2.062-1.728Zm.239,0a.306.306,0,0,0,.1.239.393.393,0,0,0,.272.093.587.587,0,0,0,.237-.048.417.417,0,0,0,.177-.14v-.288a.426.426,0,0,0-.177-.137.587.587,0,0,0-.237-.048.4.4,0,0,0-.271.093A.3.3,0,0,0,2.3-1.728Zm1.5.464V-3.356h.234v2.092Zm.616-.76a.842.842,0,0,1,.1-.4.737.737,0,0,1,.267-.288.714.714,0,0,1,.384-.106.7.7,0,0,1,.391.109.686.686,0,0,1,.252.292A.969.969,0,0,1,5.89-2v.06H4.667a.567.567,0,0,0,.16.374.51.51,0,0,0,.382.15.67.67,0,0,0,.257-.051.638.638,0,0,0,.215-.144l.112.153a.825.825,0,0,1-.6.236.746.746,0,0,1-.557-.222A.788.788,0,0,1,4.416-2.024Zm.248-.1h.994a.553.553,0,0,0-.031-.173.564.564,0,0,0-.088-.161.424.424,0,0,0-.156-.122.51.51,0,0,0-.222-.047.479.479,0,0,0-.211.046.434.434,0,0,0-.154.12A.618.618,0,0,0,4.7-2.3.561.561,0,0,0,4.664-2.12ZM7.082-.687V-2.779h.234v.225a.634.634,0,0,1,.221-.191.61.61,0,0,1,.29-.072.616.616,0,0,1,.488.214.852.852,0,0,1,.186.58.862.862,0,0,1-.186.58.611.611,0,0,1-.488.217.59.59,0,0,1-.284-.07.7.7,0,0,1-.227-.2v.807Zm.234-.994a.5.5,0,0,0,.19.173.534.534,0,0,0,.262.07A.431.431,0,0,0,8.123-1.6a.654.654,0,0,0,.132-.422.648.648,0,0,0-.132-.42.433.433,0,0,0-.355-.163.534.534,0,0,0-.262.07.5.5,0,0,0-.19.172Zm1.559.417V-2.779h.234v.242a.8.8,0,0,1,.228-.2.542.542,0,0,1,.277-.076v.242a.85.85,0,0,0-.09-.006.473.473,0,0,0-.236.074.466.466,0,0,0-.179.168v1.072ZM9.913-3.04a.152.152,0,0,1-.046-.112.153.153,0,0,1,.047-.113.153.153,0,0,1,.113-.047.151.151,0,0,1,.112.047.155.155,0,0,1,.046.113.152.152,0,0,1-.046.112.152.152,0,0,1-.112.046A.157.157,0,0,1,9.913-3.04Zm0,1.776V-2.779h.234v1.515Zm.616-.76a.857.857,0,0,1,.094-.4.714.714,0,0,1,.267-.285.747.747,0,0,1,.4-.1.663.663,0,0,1,.554.263l-.156.141a.453.453,0,0,0-.386-.194.48.48,0,0,0-.381.164.614.614,0,0,0-.143.42.618.618,0,0,0,.144.421.479.479,0,0,0,.38.165.461.461,0,0,0,.386-.2l.156.145a.663.663,0,0,1-.554.263.709.709,0,0,1-.545-.228A.806.806,0,0,1,10.524-2.024Zm1.554,0a.842.842,0,0,1,.1-.4.737.737,0,0,1,.267-.288.714.714,0,0,1,.384-.106.7.7,0,0,1,.391.109.686.686,0,0,1,.252.292A.969.969,0,0,1,13.554-2v.06H12.33a.567.567,0,0,0,.16.374.51.51,0,0,0,.382.15.67.67,0,0,0,.257-.051.638.638,0,0,0,.215-.144l.112.153a.825.825,0,0,1-.6.236.746.746,0,0,1-.557-.222A.788.788,0,0,1,12.079-2.024Zm.248-.1h.994a.553.553,0,0,0-.031-.173.564.564,0,0,0-.088-.161.424.424,0,0,0-.156-.122.51.51,0,0,0-.222-.047.479.479,0,0,0-.211.046.434.434,0,0,0-.154.12.618.618,0,0,0-.093.161A.561.561,0,0,0,12.327-2.12Zm2.427.856V-3.356H15.6a.637.637,0,0,1,.479.181.62.62,0,0,1,.176.449.617.617,0,0,1-.177.448A.638.638,0,0,1,15.6-2.1h-.58v.832Zm.26-1.063h.548a.421.421,0,0,0,.3-.11.378.378,0,0,0,.116-.288.378.378,0,0,0-.116-.288.421.421,0,0,0-.3-.11h-.548Zm1.455.767.156-.2a.906.906,0,0,0,.281.217.816.816,0,0,0,.374.085.734.734,0,0,0,.234-.034.386.386,0,0,0,.155-.089.368.368,0,0,0,.08-.116.325.325,0,0,0,.025-.126.271.271,0,0,0-.042-.151.321.321,0,0,0-.114-.106.967.967,0,0,0-.165-.072q-.093-.031-.2-.059l-.206-.057a1.213,1.213,0,0,1-.2-.074.813.813,0,0,1-.165-.1.413.413,0,0,1-.114-.152.507.507,0,0,1-.042-.212.514.514,0,0,1,.2-.42.8.8,0,0,1,.517-.163.972.972,0,0,1,.74.3L17.84-2.9a.766.766,0,0,0-.6-.251.5.5,0,0,0-.309.093.288.288,0,0,0-.122.24.215.215,0,0,0,.042.132.314.314,0,0,0,.114.093,1.118,1.118,0,0,0,.165.065q.093.029.2.057t.206.059a1.151,1.151,0,0,1,.2.08.818.818,0,0,1,.165.112A.447.447,0,0,1,18-2.065a.562.562,0,0,1,.042.224A.593.593,0,0,1,18-1.616a.606.606,0,0,1-.13.2.6.6,0,0,1-.241.142,1.1,1.1,0,0,1-.358.053,1.132,1.132,0,0,1-.462-.09A.979.979,0,0,1,16.469-1.56Zm1.963.3V-3.356H19.8v.233h-1.11v.674H19.78v.231H18.693v.954Z" transform="translate(-0.19 3.773)" fill="#fff" opacity="0.5"/><g transform="translate(20.683 0)" opacity="0.4"><g fill="none" stroke="#fff" stroke-width="0.5"><circle cx="1.739" cy="1.739" r="1.739" stroke="none"/><circle cx="1.739" cy="1.739" r="1.489" fill="none"/></g><path d="M-3.406-10.559a.661.661,0,0,1,.243-.2.753.753,0,0,1,.331-.071.575.575,0,0,1,.378.117.365.365,0,0,1,.142.293.388.388,0,0,1-.028.15.387.387,0,0,1-.074.117.877.877,0,0,1-.1.091q-.054.043-.109.08t-.1.074a.328.328,0,0,0-.074.083.186.186,0,0,0-.028.1.151.151,0,0,0,.07.127l-.162.071a.275.275,0,0,1-.1-.217.3.3,0,0,1,.027-.126.341.341,0,0,1,.069-.1.836.836,0,0,1,.093-.08l.1-.073a1.058,1.058,0,0,0,.093-.072.308.308,0,0,0,.069-.086.22.22,0,0,0,.027-.106.225.225,0,0,0-.081-.176.337.337,0,0,0-.23-.071.5.5,0,0,0-.245.056.566.566,0,0,0-.18.162Zm.442,1.507a.139.139,0,0,1-.043-.1.141.141,0,0,1,.043-.1.141.141,0,0,1,.1-.043.138.138,0,0,1,.1.043.142.142,0,0,1,.043.1.139.139,0,0,1-.043.1.139.139,0,0,1-.1.043A.144.144,0,0,1-2.964-9.052Z" transform="translate(4.566 11.656)" fill="#fff"/></g></g></g><g transform="translate(0 35.128)"><path d="M.168-4.507l.838-.862h.368v3.347H.957v-2.8L.418-4.25ZM2.145-2.054a.264.264,0,0,1-.081-.194.266.266,0,0,1,.082-.195.266.266,0,0,1,.195-.082.262.262,0,0,1,.194.082.268.268,0,0,1,.081.195.264.264,0,0,1-.081.194.264.264,0,0,1-.194.081A.272.272,0,0,1,2.145-2.054ZM3.167-4.331a1.07,1.07,0,0,1,.082-.415,1.1,1.1,0,0,1,.23-.349,1.061,1.061,0,0,1,.372-.241,1.314,1.314,0,0,1,.491-.089,1.254,1.254,0,0,1,.493.093A1.045,1.045,0,0,1,5.2-5.08,1.393,1.393,0,0,1,5.45-4.7a2.023,2.023,0,0,1,.143.473,3.059,3.059,0,0,1,.044.532,2.626,2.626,0,0,1-.051.528,1.915,1.915,0,0,1-.16.47,1.488,1.488,0,0,1-.267.381,1.131,1.131,0,0,1-.385.255,1.307,1.307,0,0,1-.5.093,1.19,1.19,0,0,1-.929-.4l.211-.311a1.043,1.043,0,0,0,.309.254.876.876,0,0,0,.409.087.811.811,0,0,0,.43-.114A.833.833,0,0,0,5-2.759a1.591,1.591,0,0,0,.163-.419,2.054,2.054,0,0,0,.054-.477,1.273,1.273,0,0,0,0-.13,1.171,1.171,0,0,1-.387.36,1.042,1.042,0,0,1-.556.162,1.278,1.278,0,0,1-.553-.115.924.924,0,0,1-.4-.361A1.105,1.105,0,0,1,3.167-4.331Zm.421-.015a.668.668,0,0,0,.217.538.829.829,0,0,0,.557.185.9.9,0,0,0,.473-.138A1.073,1.073,0,0,0,5.2-4.125a1.539,1.539,0,0,0-.045-.256,1.151,1.151,0,0,0-.1-.249A.925.925,0,0,0,4.9-4.846.7.7,0,0,0,4.665-5a.793.793,0,0,0-.308-.058.837.837,0,0,0-.334.065.684.684,0,0,0-.244.169.765.765,0,0,0-.142.227A.661.661,0,0,0,3.589-4.345Zm2.443,1.83.247-.26a1.085,1.085,0,0,0,.4.321,1.205,1.205,0,0,0,.535.12A.886.886,0,0,0,7.785-2.5a.558.558,0,0,0,.209-.458.5.5,0,0,0-.223-.447,1.105,1.105,0,0,0-.61-.146q-.3,0-.345,0v-.38q.056,0,.345,0a1.032,1.032,0,0,0,.56-.138.456.456,0,0,0,.219-.413A.488.488,0,0,0,7.726-4.9a.9.9,0,0,0-.535-.152,1.111,1.111,0,0,0-.481.1,1.309,1.309,0,0,0-.4.306L6.078-4.9a1.379,1.379,0,0,1,.483-.375,1.525,1.525,0,0,1,.666-.14,1.318,1.318,0,0,1,.812.238.768.768,0,0,1,.317.649.745.745,0,0,1-.067.319.678.678,0,0,1-.176.236,1.009,1.009,0,0,1-.229.147.931.931,0,0,1-.245.075.852.852,0,0,1,.249.067,1.066,1.066,0,0,1,.249.152.73.73,0,0,1,.2.257.8.8,0,0,1,.077.352.866.866,0,0,1-.322.695,1.3,1.3,0,0,1-.866.271,1.571,1.571,0,0,1-.714-.156A1.233,1.233,0,0,1,6.031-2.515Zm2.71.493.926-1.245L8.791-4.446h.436l.674.924.676-.924h.431l-.877,1.179.934,1.245h-.431L9.9-3.017l-.728.995Z" transform="translate(0.32 25.741)" fill="#fff"/><path d="M2,0H9.711a2,2,0,0,1,2,2V4.982a0,0,0,0,1,0,0H0a0,0,0,0,1,0,0V2A2,2,0,0,1,2,0Z" transform="translate(0.382 0)" fill="#69aef0"/><g transform="translate(0 13.561)"><path d="M.391-1.264V-3.356H.763l.652,1.613.649-1.613h.374v2.092h-.26v-1.76l-.709,1.76H1.363L.651-3.024v1.76ZM2.97-1.756a1.177,1.177,0,0,1-.129-.553,1.171,1.171,0,0,1,.129-.553.965.965,0,0,1,.368-.388,1.038,1.038,0,0,1,.541-.142,1.043,1.043,0,0,1,.542.142.968.968,0,0,1,.369.388,1.166,1.166,0,0,1,.13.553,1.166,1.166,0,0,1-.13.553.968.968,0,0,1-.369.388,1.043,1.043,0,0,1-.542.142,1.038,1.038,0,0,1-.541-.142A.97.97,0,0,1,2.97-1.756Zm.142-.553a.992.992,0,0,0,.093.435.719.719,0,0,0,.269.3.745.745,0,0,0,.406.111.749.749,0,0,0,.407-.111.728.728,0,0,0,.271-.3.979.979,0,0,0,.094-.435.885.885,0,0,0-.213-.61.712.712,0,0,0-.559-.24.705.705,0,0,0-.557.239A.892.892,0,0,0,3.112-2.308ZM5.325-1.264V-3.356h.26v2.092Zm.747-.6a1.139,1.139,0,0,1-.084-.44,1.139,1.139,0,0,1,.084-.44A1.013,1.013,0,0,1,6.3-3.092a1.04,1.04,0,0,1,.342-.22,1.122,1.122,0,0,1,.422-.08.916.916,0,0,1,.793.415l-.216.123A.676.676,0,0,0,7.4-3.075a.686.686,0,0,0-.331-.083.767.767,0,0,0-.576.238.845.845,0,0,0-.23.612.907.907,0,0,0,.106.439.767.767,0,0,0,.289.3.8.8,0,0,0,.41.108.683.683,0,0,0,.33-.084.686.686,0,0,0,.247-.221l.219.119a.942.942,0,0,1-.8.418,1.122,1.122,0,0,1-.422-.08,1.04,1.04,0,0,1-.342-.22A1.013,1.013,0,0,1,6.072-1.869Z" transform="translate(-0.391 3.773)" fill="#fff" opacity="0.5"/><g transform="translate(9.379 0)" opacity="0.4"><g fill="none" stroke="#fff" stroke-width="0.5"><circle cx="1.739" cy="1.739" r="1.739" stroke="none"/><circle cx="1.739" cy="1.739" r="1.489" fill="none"/></g><path d="M-3.406-10.559a.661.661,0,0,1,.243-.2.753.753,0,0,1,.331-.071.575.575,0,0,1,.378.117.365.365,0,0,1,.142.293.388.388,0,0,1-.028.15.387.387,0,0,1-.074.117.877.877,0,0,1-.1.091q-.054.043-.109.08t-.1.074a.328.328,0,0,0-.074.083.186.186,0,0,0-.028.1.151.151,0,0,0,.07.127l-.162.071a.275.275,0,0,1-.1-.217.3.3,0,0,1,.027-.126.341.341,0,0,1,.069-.1.836.836,0,0,1,.093-.08l.1-.073a1.058,1.058,0,0,0,.093-.072.308.308,0,0,0,.069-.086.22.22,0,0,0,.027-.106.225.225,0,0,0-.081-.176.337.337,0,0,0-.23-.071.5.5,0,0,0-.245.056.566.566,0,0,0-.18.162Zm.442,1.507a.139.139,0,0,1-.043-.1.141.141,0,0,1,.043-.1.141.141,0,0,1,.1-.043.138.138,0,0,1,.1.043.142.142,0,0,1,.043.1.139.139,0,0,1-.043.1.139.139,0,0,1-.1.043A.144.144,0,0,1-2.964-9.052Z" transform="translate(4.566 11.656)" fill="#fff"/></g></g></g><g transform="translate(27.456 32.618)"><path d="M.168-4.507l.838-.862h.368v3.347H.957v-2.8L.418-4.25ZM2.03-4.892a1.234,1.234,0,0,1,.5-.39,1.62,1.62,0,0,1,.668-.137,1.376,1.376,0,0,1,.41.061,1.2,1.2,0,0,1,.358.179.85.85,0,0,1,.257.31.949.949,0,0,1,.1.432,1.088,1.088,0,0,1-.083.408,1.846,1.846,0,0,1-.216.391,3.35,3.35,0,0,1-.355.406q-.223.222-.439.4t-.532.432H4.333v.372h-2.3v-.336q.343-.267.561-.445t.453-.382a4.914,4.914,0,0,0,.372-.353,3.5,3.5,0,0,0,.255-.309,1.189,1.189,0,0,0,.168-.3.859.859,0,0,0,.05-.285.536.536,0,0,0-.207-.457.8.8,0,0,0-.494-.156,1.18,1.18,0,0,0-.523.113,1.092,1.092,0,0,0-.386.309ZM5.1-2.054a.264.264,0,0,1-.081-.194A.266.266,0,0,1,5.1-2.443a.266.266,0,0,1,.195-.082.262.262,0,0,1,.194.082.268.268,0,0,1,.081.195.264.264,0,0,1-.081.194.264.264,0,0,1-.194.081A.272.272,0,0,1,5.1-2.054Zm.921-.461.247-.26a1.085,1.085,0,0,0,.4.321,1.205,1.205,0,0,0,.535.12A.886.886,0,0,0,7.77-2.5a.558.558,0,0,0,.209-.458.5.5,0,0,0-.223-.447,1.105,1.105,0,0,0-.61-.146q-.3,0-.345,0v-.38q.056,0,.345,0a1.032,1.032,0,0,0,.56-.138.456.456,0,0,0,.219-.413A.488.488,0,0,0,7.711-4.9a.9.9,0,0,0-.535-.152,1.111,1.111,0,0,0-.481.1,1.309,1.309,0,0,0-.4.306L6.063-4.9a1.379,1.379,0,0,1,.483-.375,1.525,1.525,0,0,1,.666-.14,1.318,1.318,0,0,1,.812.238.768.768,0,0,1,.317.649.745.745,0,0,1-.067.319.678.678,0,0,1-.176.236,1.009,1.009,0,0,1-.229.147.931.931,0,0,1-.245.075.852.852,0,0,1,.249.067,1.066,1.066,0,0,1,.249.152.73.73,0,0,1,.2.257.8.8,0,0,1,.077.352.866.866,0,0,1-.322.695,1.3,1.3,0,0,1-.866.271,1.571,1.571,0,0,1-.714-.156A1.233,1.233,0,0,1,6.017-2.515ZM8.911-4.331a1.07,1.07,0,0,1,.082-.415,1.1,1.1,0,0,1,.23-.349A1.061,1.061,0,0,1,9.6-5.336a1.314,1.314,0,0,1,.491-.089,1.254,1.254,0,0,1,.493.093,1.045,1.045,0,0,1,.368.252,1.393,1.393,0,0,1,.246.382,2.023,2.023,0,0,1,.143.473,3.059,3.059,0,0,1,.044.532,2.626,2.626,0,0,1-.051.528,1.915,1.915,0,0,1-.16.47,1.488,1.488,0,0,1-.267.381,1.131,1.131,0,0,1-.385.255,1.307,1.307,0,0,1-.5.093,1.19,1.19,0,0,1-.929-.4L9.3-2.679a1.043,1.043,0,0,0,.309.254.876.876,0,0,0,.409.087.811.811,0,0,0,.43-.114.833.833,0,0,0,.3-.306,1.591,1.591,0,0,0,.163-.419,2.054,2.054,0,0,0,.054-.477,1.273,1.273,0,0,0,0-.13,1.171,1.171,0,0,1-.387.36,1.042,1.042,0,0,1-.556.162,1.278,1.278,0,0,1-.553-.115.924.924,0,0,1-.4-.361A1.105,1.105,0,0,1,8.911-4.331Zm.421-.015a.668.668,0,0,0,.217.538.829.829,0,0,0,.557.185.9.9,0,0,0,.473-.138,1.073,1.073,0,0,0,.365-.364,1.539,1.539,0,0,0-.045-.256,1.151,1.151,0,0,0-.1-.249.925.925,0,0,0-.159-.217A.7.7,0,0,0,10.409-5a.793.793,0,0,0-.308-.058.837.837,0,0,0-.334.065.684.684,0,0,0-.244.169.765.765,0,0,0-.142.227A.661.661,0,0,0,9.332-4.345Zm2.453-.243a.823.823,0,0,1,.227-.6.773.773,0,0,1,.582-.235.774.774,0,0,1,.583.234.825.825,0,0,1,.225.6A.809.809,0,0,1,13.177-4a.774.774,0,0,1-.583.234A.775.775,0,0,1,12.011-4,.807.807,0,0,1,11.785-4.588Zm.3,0a.584.584,0,0,0,.143.4.465.465,0,0,0,.364.162.464.464,0,0,0,.365-.162.587.587,0,0,0,.142-.4A.609.609,0,0,0,12.96-5a.461.461,0,0,0-.366-.163A.463.463,0,0,0,12.229-5,.6.6,0,0,0,12.086-4.588Zm.186,2.565,2.139-3.347h.279L12.549-2.022ZM13.757-2.2a.816.816,0,0,1-.225-.588.822.822,0,0,1,.227-.591.769.769,0,0,1,.582-.238.762.762,0,0,1,.578.238.825.825,0,0,1,.225.591.819.819,0,0,1-.224.588.765.765,0,0,1-.579.235A.777.777,0,0,1,13.757-2.2Zm.071-.588a.589.589,0,0,0,.142.406.471.471,0,0,0,.37.16.464.464,0,0,0,.365-.162.59.59,0,0,0,.142-.4.6.6,0,0,0-.142-.41.462.462,0,0,0-.365-.163.468.468,0,0,0-.37.163A.6.6,0,0,0,13.828-2.784Z" transform="translate(1.718 28.089)" fill="#fff"/><path d="M2,0H9.711a2,2,0,0,1,2,2V7.329a0,0,0,0,1,0,0H0a0,0,0,0,1,0,0V2A2,2,0,0,1,2,0Z" transform="translate(3.663 0)" fill="#a7c3f2"/><g transform="translate(0 15.91)"><path d="M.161-3.1v-.233H1.748V-3.1H1.083v1.859H.823V-3.1ZM1.7-1.707a.519.519,0,0,1,.046-.221.419.419,0,0,1,.122-.158.559.559,0,0,1,.168-.09.6.6,0,0,1,.191-.031.637.637,0,0,1,.5.2v-.273a.28.28,0,0,0-.107-.232.43.43,0,0,0-.276-.085.61.61,0,0,0-.464.211l-.11-.164A.8.8,0,0,1,2.38-2.8a.844.844,0,0,1,.229.029.577.577,0,0,1,.185.088.4.4,0,0,1,.127.16.561.561,0,0,1,.046.234v1.041H2.731v-.173a.64.64,0,0,1-.5.211.561.561,0,0,1-.189-.033.58.58,0,0,1-.169-.094.439.439,0,0,1-.123-.159A.5.5,0,0,1,1.7-1.707Zm.239,0a.306.306,0,0,0,.1.239.393.393,0,0,0,.272.093.587.587,0,0,0,.237-.048.417.417,0,0,0,.177-.14v-.288a.426.426,0,0,0-.177-.137.587.587,0,0,0-.237-.048.4.4,0,0,0-.271.093A.3.3,0,0,0,1.941-1.707Zm1.5.464V-2.758h.234v.242a.8.8,0,0,1,.228-.2.542.542,0,0,1,.277-.076v.242a.85.85,0,0,0-.09-.006.473.473,0,0,0-.236.074.466.466,0,0,0-.179.168v1.072Zm.945-.766a.84.84,0,0,1,.187-.574A.618.618,0,0,1,5.06-2.8a.6.6,0,0,1,.284.07.674.674,0,0,1,.226.2v-.228h.236v1.493a.7.7,0,0,1-.06.3.48.48,0,0,1-.165.2.745.745,0,0,1-.229.1,1.055,1.055,0,0,1-.271.033,1.033,1.033,0,0,1-.339-.049.739.739,0,0,1-.272-.179l.118-.17A.55.55,0,0,0,4.8-.871a.752.752,0,0,0,.283.047A.551.551,0,0,0,5.43-.932a.394.394,0,0,0,.14-.332v-.23a.684.684,0,0,1-.223.2.583.583,0,0,1-.287.074.621.621,0,0,1-.489-.211A.834.834,0,0,1,4.385-2.009Zm.245,0a.633.633,0,0,0,.131.414.437.437,0,0,0,.358.16.521.521,0,0,0,.26-.071.534.534,0,0,0,.191-.174v-.665a.532.532,0,0,0-.192-.172.527.527,0,0,0-.26-.07.437.437,0,0,0-.358.16A.638.638,0,0,0,4.63-2.009ZM6.187-2a.842.842,0,0,1,.1-.4.737.737,0,0,1,.267-.288A.714.714,0,0,1,6.935-2.8a.7.7,0,0,1,.391.109.686.686,0,0,1,.252.292.969.969,0,0,1,.085.413v.06H6.438a.567.567,0,0,0,.16.374.51.51,0,0,0,.382.15.67.67,0,0,0,.257-.051.638.638,0,0,0,.215-.144l.112.153a.825.825,0,0,1-.6.236A.746.746,0,0,1,6.4-1.427.788.788,0,0,1,6.187-2Zm.248-.1h.994A.553.553,0,0,0,7.4-2.272a.564.564,0,0,0-.088-.161.424.424,0,0,0-.156-.122A.51.51,0,0,0,6.932-2.6a.479.479,0,0,0-.211.046.434.434,0,0,0-.154.12.618.618,0,0,0-.093.161A.56.56,0,0,0,6.435-2.1Zm1.4-.452v-.207h.251v-.415h.239v.415h.308v.207H8.327v.94a.237.237,0,0,0,.038.142.129.129,0,0,0,.112.053.2.2,0,0,0,.161-.066l.069.179a.387.387,0,0,1-.279.1A.33.33,0,0,1,8.174-1.3a.37.37,0,0,1-.087-.263v-.991ZM9.785-1.243V-3.335h.26v2.092Zm.749,0V-3.335h.841a.666.666,0,0,1,.475.172.6.6,0,0,1,.184.459.668.668,0,0,1-.045.25.531.531,0,0,1-.122.188.6.6,0,0,1-.174.118.629.629,0,0,1-.206.053l.565.853h-.308l-.53-.832h-.42v.832Zm.26-1.06h.548a.423.423,0,0,0,.3-.112.381.381,0,0,0,.118-.289.377.377,0,0,0-.117-.288.426.426,0,0,0-.3-.11h-.548Zm1.649,1.06V-3.335h.841a.666.666,0,0,1,.475.172.6.6,0,0,1,.184.459.668.668,0,0,1-.045.25.531.531,0,0,1-.122.188.6.6,0,0,1-.174.118A.629.629,0,0,1,13.4-2.1l.565.853h-.308l-.53-.832H12.7v.832ZM12.7-2.3h.548a.423.423,0,0,0,.3-.112.381.381,0,0,0,.118-.289.377.377,0,0,0-.117-.288.426.426,0,0,0-.3-.11H12.7Z" transform="translate(-0.161 3.752)" fill="#fff" opacity="0.5"/><g transform="translate(15.413 0)" opacity="0.4"><g fill="none" stroke="#fff" stroke-width="0.5"><circle cx="1.739" cy="1.739" r="1.739" stroke="none"/><circle cx="1.739" cy="1.739" r="1.489" fill="none"/></g><path d="M-3.406-10.559a.661.661,0,0,1,.243-.2.753.753,0,0,1,.331-.071.575.575,0,0,1,.378.117.365.365,0,0,1,.142.293.388.388,0,0,1-.028.15.387.387,0,0,1-.074.117.877.877,0,0,1-.1.091q-.054.043-.109.08t-.1.074a.328.328,0,0,0-.074.083.186.186,0,0,0-.028.1.151.151,0,0,0,.07.127l-.162.071a.275.275,0,0,1-.1-.217.3.3,0,0,1,.027-.126.341.341,0,0,1,.069-.1.836.836,0,0,1,.093-.08l.1-.073a1.058,1.058,0,0,0,.093-.072.308.308,0,0,0,.069-.086.22.22,0,0,0,.027-.106.225.225,0,0,0-.081-.176.337.337,0,0,0-.23-.071.5.5,0,0,0-.245.056.566.566,0,0,0-.18.162Zm.442,1.507a.139.139,0,0,1-.043-.1.141.141,0,0,1,.043-.1.141.141,0,0,1,.1-.043.138.138,0,0,1,.1.043.142.142,0,0,1,.043.1.139.139,0,0,1-.043.1.139.139,0,0,1-.1.043A.144.144,0,0,1-2.964-9.052Z" transform="translate(4.566 11.656)" fill="#fff"/></g></g></g></g><g transform="translate(8.017 8.918)"><path d="M.781-2.528V-6.712H2.463a1.332,1.332,0,0,1,.949.345,1.2,1.2,0,0,1,.368.917,1.337,1.337,0,0,1-.09.5,1.062,1.062,0,0,1-.243.375A1.2,1.2,0,0,1,3.1-4.34a1.257,1.257,0,0,1-.412.106l1.13,1.706H3.2L2.141-4.191H1.3v1.663ZM1.3-4.647H2.4A.846.846,0,0,0,3-4.871a.762.762,0,0,0,.236-.579.754.754,0,0,0-.234-.576A.851.851,0,0,0,2.4-6.246H1.3Zm2.916.6a1.684,1.684,0,0,1,.191-.8,1.474,1.474,0,0,1,.534-.576,1.428,1.428,0,0,1,.769-.213,1.4,1.4,0,0,1,.781.217,1.372,1.372,0,0,1,.5.583,1.937,1.937,0,0,1,.17.825v.119H4.72a1.134,1.134,0,0,0,.32.747,1.019,1.019,0,0,0,.764.3,1.34,1.34,0,0,0,.513-.1,1.275,1.275,0,0,0,.43-.288l.224.306a1.65,1.65,0,0,1-1.2.472A1.493,1.493,0,0,1,4.653-2.9,1.576,1.576,0,0,1,4.218-4.047Zm.5-.193H6.7a1.106,1.106,0,0,0-.063-.346,1.128,1.128,0,0,0-.176-.322.848.848,0,0,0-.312-.243,1.02,1.02,0,0,0-.444-.093.958.958,0,0,0-.423.092.868.868,0,0,0-.308.24,1.237,1.237,0,0,0-.185.322A1.121,1.121,0,0,0,4.714-4.24Zm2.8-.9v-.413h.5v-.83H8.5v.83h.616v.413H8.5v1.881a.473.473,0,0,0,.077.283.259.259,0,0,0,.224.106.4.4,0,0,0,.322-.132l.138.358a.774.774,0,0,1-.557.2.66.66,0,0,1-.507-.185.741.741,0,0,1-.173-.525V-5.144ZM9.771-3.419V-5.557h.469v1.994a.687.687,0,0,0,.175.534.744.744,0,0,0,.508.155,1.06,1.06,0,0,0,.508-.132,1.1,1.1,0,0,0,.383-.325V-5.557h.472v3.029h-.472v-.426a1.573,1.573,0,0,1-.475.358,1.32,1.32,0,0,1-.6.144A.854.854,0,0,1,9.771-3.419Zm3.455.891V-5.557h.469v.484a1.6,1.6,0,0,1,.456-.4,1.084,1.084,0,0,1,.554-.152v.484a1.7,1.7,0,0,0-.181-.012.946.946,0,0,0-.472.149.933.933,0,0,0-.358.335v2.144Zm2.067,0V-5.557h.469v.438a1.509,1.509,0,0,1,.472-.363,1.326,1.326,0,0,1,.616-.152.857.857,0,0,1,.959.98v2.126h-.466V-4.51a.706.706,0,0,0-.178-.544.727.727,0,0,0-.505-.161,1.015,1.015,0,0,0-.507.138,1.246,1.246,0,0,0-.391.334v2.214Zm3.2-.4.236-.34a1.3,1.3,0,0,0,.432.309,1.326,1.326,0,0,0,.567.126.867.867,0,0,0,.531-.144.45.45,0,0,0,.191-.377.332.332,0,0,0-.1-.248.7.7,0,0,0-.27-.156q-.165-.055-.364-.1t-.4-.107a2.016,2.016,0,0,1-.366-.15.718.718,0,0,1-.27-.253.713.713,0,0,1-.1-.391.778.778,0,0,1,.3-.623,1.25,1.25,0,0,1,.824-.25,1.493,1.493,0,0,1,1.121.441l-.217.325a1.01,1.01,0,0,0-.378-.277,1.277,1.277,0,0,0-.525-.106.8.8,0,0,0-.487.136.411.411,0,0,0-.184.342.283.283,0,0,0,.1.222.733.733,0,0,0,.268.141q.164.051.364.095t.4.109a1.913,1.913,0,0,1,.364.158.733.733,0,0,1,.268.268.792.792,0,0,1,.1.413.818.818,0,0,1-.311.657,1.329,1.329,0,0,1-.874.259A1.617,1.617,0,0,1,18.5-2.929Zm4.631-.527A1.037,1.037,0,0,1,23.22-3.9a.839.839,0,0,1,.243-.315,1.118,1.118,0,0,1,.335-.179,1.2,1.2,0,0,1,.383-.061,1.273,1.273,0,0,1,1,.407v-.545a.56.56,0,0,0-.214-.464.86.86,0,0,0-.551-.17,1.219,1.219,0,0,0-.928.423l-.221-.328a1.608,1.608,0,0,1,1.213-.5,1.687,1.687,0,0,1,.458.058,1.154,1.154,0,0,1,.369.176.79.79,0,0,1,.254.32,1.122,1.122,0,0,1,.092.469v2.083h-.472v-.346a1.279,1.279,0,0,1-1,.423,1.122,1.122,0,0,1-.378-.066,1.16,1.16,0,0,1-.338-.188.879.879,0,0,1-.245-.317A1,1,0,0,1,23.128-3.456Zm.478,0a.611.611,0,0,0,.21.478.787.787,0,0,0,.544.187,1.175,1.175,0,0,0,.473-.1.833.833,0,0,0,.354-.28v-.576a.852.852,0,0,0-.354-.274,1.175,1.175,0,0,0-.473-.1.792.792,0,0,0-.542.185A.6.6,0,0,0,23.606-3.456Zm3,.928V-5.557h.469v.438a1.508,1.508,0,0,1,.472-.363,1.326,1.326,0,0,1,.616-.152.857.857,0,0,1,.959.98v2.126h-.466V-4.51a.706.706,0,0,0-.178-.544.727.727,0,0,0-.505-.161,1.015,1.015,0,0,0-.507.138,1.246,1.246,0,0,0-.391.334v2.214Zm3.283-1.513A1.708,1.708,0,0,1,30.264-5.2a1.227,1.227,0,0,1,.974-.436,1.192,1.192,0,0,1,.568.141,1.347,1.347,0,0,1,.452.392V-6.712h.472v4.184h-.472v-.45a1.339,1.339,0,0,1-.444.383,1.193,1.193,0,0,1-.576.144,1.233,1.233,0,0,1-.976-.43A1.7,1.7,0,0,1,29.888-4.041Zm.753-.842a1.3,1.3,0,0,0-.263.842,1.3,1.3,0,0,0,.262.841.868.868,0,0,0,.715.326,1.074,1.074,0,0,0,.525-.139,1,1,0,0,0,.378-.342V-4.724a1.009,1.009,0,0,0-.38-.348,1.059,1.059,0,0,0-.524-.142A.864.864,0,0,0,30.641-4.883Zm4.42,1.764.312-.4a1.811,1.811,0,0,0,.562.433,1.633,1.633,0,0,0,.749.17,1.468,1.468,0,0,0,.467-.067.772.772,0,0,0,.309-.178.735.735,0,0,0,.159-.231.649.649,0,0,0,.051-.253.543.543,0,0,0-.084-.3.641.641,0,0,0-.228-.211,1.934,1.934,0,0,0-.329-.144q-.185-.063-.391-.118l-.412-.113a2.425,2.425,0,0,1-.392-.147,1.626,1.626,0,0,1-.329-.207.827.827,0,0,1-.228-.3,1.015,1.015,0,0,1-.084-.424,1.027,1.027,0,0,1,.409-.841,1.606,1.606,0,0,1,1.034-.326,1.944,1.944,0,0,1,1.479.591l-.312.383a1.532,1.532,0,0,0-1.21-.5.99.99,0,0,0-.617.185.576.576,0,0,0-.243.479.43.43,0,0,0,.084.263.627.627,0,0,0,.228.185,2.235,2.235,0,0,0,.329.13q.185.058.392.113t.412.118a2.3,2.3,0,0,1,.391.159,1.636,1.636,0,0,1,.329.224.894.894,0,0,1,.228.323,1.123,1.123,0,0,1,.084.447,1.186,1.186,0,0,1-.086.45,1.211,1.211,0,0,1-.26.391,1.208,1.208,0,0,1-.482.285,2.2,2.2,0,0,1-.715.106,2.265,2.265,0,0,1-.923-.179A1.958,1.958,0,0,1,35.061-3.119Zm3.731-.928a1.684,1.684,0,0,1,.191-.8,1.474,1.474,0,0,1,.534-.576,1.428,1.428,0,0,1,.769-.213,1.4,1.4,0,0,1,.781.217,1.372,1.372,0,0,1,.5.583,1.937,1.937,0,0,1,.17.825v.119H39.294a1.134,1.134,0,0,0,.32.747,1.019,1.019,0,0,0,.764.3,1.34,1.34,0,0,0,.513-.1,1.275,1.275,0,0,0,.43-.288l.224.306a1.65,1.65,0,0,1-1.2.472A1.493,1.493,0,0,1,39.226-2.9,1.576,1.576,0,0,1,38.791-4.047Zm.5-.193h1.988a1.106,1.106,0,0,0-.063-.346,1.128,1.128,0,0,0-.176-.322.848.848,0,0,0-.312-.243,1.02,1.02,0,0,0-.444-.093.958.958,0,0,0-.423.092.868.868,0,0,0-.308.24,1.237,1.237,0,0,0-.185.322A1.121,1.121,0,0,0,39.287-4.24ZM42.5-2.528V-5.557h.469v.438a1.509,1.509,0,0,1,.472-.363,1.326,1.326,0,0,1,.616-.152.857.857,0,0,1,.959.98v2.126h-.466V-4.51a.706.706,0,0,0-.178-.544.727.727,0,0,0-.505-.161,1.015,1.015,0,0,0-.507.138,1.246,1.246,0,0,0-.391.334v2.214Zm3.2-.4.236-.34a1.3,1.3,0,0,0,.432.309,1.326,1.326,0,0,0,.567.126.867.867,0,0,0,.531-.144.45.45,0,0,0,.191-.377.332.332,0,0,0-.1-.248.7.7,0,0,0-.27-.156q-.165-.055-.364-.1t-.4-.107a2.016,2.016,0,0,1-.366-.15.718.718,0,0,1-.27-.253.713.713,0,0,1-.1-.391.778.778,0,0,1,.3-.623,1.25,1.25,0,0,1,.824-.25,1.493,1.493,0,0,1,1.121.441l-.217.325a1.01,1.01,0,0,0-.378-.277,1.277,1.277,0,0,0-.525-.106.8.8,0,0,0-.487.136.411.411,0,0,0-.184.342.283.283,0,0,0,.1.222.733.733,0,0,0,.268.141q.164.051.364.095t.4.109a1.913,1.913,0,0,1,.364.158.733.733,0,0,1,.268.268.792.792,0,0,1,.1.413.818.818,0,0,1-.311.657,1.329,1.329,0,0,1-.874.259A1.617,1.617,0,0,1,45.7-2.929Zm3.182-3.152a.3.3,0,0,1-.092-.224.307.307,0,0,1,.093-.225.307.307,0,0,1,.225-.093.3.3,0,0,1,.224.093.309.309,0,0,1,.092.225.3.3,0,0,1-.092.224.3.3,0,0,1-.224.092A.315.315,0,0,1,48.886-6.081Zm-.009,3.553V-5.557h.469v3.029Zm1-2.616v-.413h.5v-.83h.478v.83h.616v.413h-.616v1.881a.473.473,0,0,0,.077.283.259.259,0,0,0,.224.106.4.4,0,0,0,.322-.132l.138.358a.774.774,0,0,1-.557.2.66.66,0,0,1-.507-.185.741.741,0,0,1-.173-.525V-5.144Zm2.263-.937a.3.3,0,0,1-.092-.224.307.307,0,0,1,.093-.225.307.307,0,0,1,.225-.093.3.3,0,0,1,.224.093.309.309,0,0,1,.092.225.3.3,0,0,1-.092.224.3.3,0,0,1-.224.092A.315.315,0,0,1,52.139-6.081ZM52.13-2.528V-5.557H52.6v3.029Zm.956-3.029H53.6l1,2.484,1.008-2.484h.508L54.862-2.528h-.515Zm3.535-.524a.3.3,0,0,1-.092-.224.307.307,0,0,1,.093-.225.307.307,0,0,1,.225-.093.3.3,0,0,1,.224.093.309.309,0,0,1,.092.225.3.3,0,0,1-.092.224.3.3,0,0,1-.224.092A.315.315,0,0,1,56.62-6.081Zm-.009,3.553V-5.557h.469v3.029Zm1-2.616v-.413h.5v-.83h.478v.83h.616v.413H58.59v1.881a.473.473,0,0,0,.077.283.259.259,0,0,0,.224.106.4.4,0,0,0,.322-.132l.138.358a.774.774,0,0,1-.557.2.66.66,0,0,1-.507-.185.741.741,0,0,1-.173-.525V-5.144Zm1.8-.413h.515l1,2.484,1.008-2.484h.508L60.93-1.912a.909.909,0,0,1-.891.613,1.2,1.2,0,0,1-.34-.043l.07-.426a.642.642,0,0,0,.257.049.48.48,0,0,0,.27-.069.544.544,0,0,0,.181-.25l.2-.459Z" transform="translate(-0.781 6.782)" fill="#fff"/></g></g><g transform="translate(138 111.027)"><g transform="matrix(1, 0, 0, 1, -147, -141.03)" filter="url(#c)"><path d="M3.136,0h139.23A3.136,3.136,0,0,1,145.5,3.136V82.528a3.136,3.136,0,0,1-3.136,3.136H3.136A3.136,3.136,0,0,1,0,82.528V3.136A3.136,3.136,0,0,1,3.136,0Z" transform="translate(147 141.03)" fill="#192f4b"/></g><path d="M.781-2.486V-6.67H1.3v4.184Zm1.479,0V-5.515h.469v.438A1.508,1.508,0,0,1,3.2-5.44a1.326,1.326,0,0,1,.616-.152.857.857,0,0,1,.959.98v2.126H4.31V-4.468a.706.706,0,0,0-.178-.544.727.727,0,0,0-.505-.161,1.015,1.015,0,0,0-.507.138,1.246,1.246,0,0,0-.391.334v2.214ZM5.268-5.515h.515l1,2.484L7.8-5.515H8.3L7.045-2.486H6.53Zm3.348,1.51a1.684,1.684,0,0,1,.191-.8,1.474,1.474,0,0,1,.534-.576,1.428,1.428,0,0,1,.769-.213,1.4,1.4,0,0,1,.781.217,1.372,1.372,0,0,1,.5.583,1.937,1.937,0,0,1,.17.825v.119H9.118a1.134,1.134,0,0,0,.32.747,1.019,1.019,0,0,0,.764.3,1.34,1.34,0,0,0,.513-.1,1.275,1.275,0,0,0,.43-.288l.224.306a1.65,1.65,0,0,1-1.2.472,1.493,1.493,0,0,1-1.115-.444A1.576,1.576,0,0,1,8.616-4.005Zm.5-.193H11.1a1.106,1.106,0,0,0-.063-.346,1.128,1.128,0,0,0-.176-.322.848.848,0,0,0-.312-.243A1.02,1.02,0,0,0,10.1-5.2a.958.958,0,0,0-.423.092.868.868,0,0,0-.308.24,1.237,1.237,0,0,0-.185.322A1.121,1.121,0,0,0,9.112-4.2Zm2.956,1.311.236-.34a1.3,1.3,0,0,0,.432.309,1.326,1.326,0,0,0,.567.126.867.867,0,0,0,.531-.144.45.45,0,0,0,.191-.377.332.332,0,0,0-.1-.248.7.7,0,0,0-.27-.156q-.165-.055-.364-.1t-.4-.107a2.016,2.016,0,0,1-.366-.15.718.718,0,0,1-.27-.253.713.713,0,0,1-.1-.391.778.778,0,0,1,.3-.623,1.25,1.25,0,0,1,.824-.25,1.493,1.493,0,0,1,1.121.441l-.217.325A1.01,1.01,0,0,0,13.8-5.1a1.277,1.277,0,0,0-.525-.106.8.8,0,0,0-.487.136.411.411,0,0,0-.184.342.283.283,0,0,0,.1.222.733.733,0,0,0,.268.141q.164.051.364.095t.4.109a1.913,1.913,0,0,1,.364.158.733.733,0,0,1,.268.268.792.792,0,0,1,.1.413.818.818,0,0,1-.311.657,1.329,1.329,0,0,1-.874.259A1.617,1.617,0,0,1,12.068-2.887ZM14.831-5.1v-.413h.5v-.83h.478v.83h.616V-5.1h-.616v1.881a.473.473,0,0,0,.077.283.259.259,0,0,0,.224.106.4.4,0,0,0,.322-.132l.138.358a.774.774,0,0,1-.557.2.66.66,0,0,1-.507-.185.741.741,0,0,1-.173-.525V-5.1Zm2.254,2.616V-5.515h.469v.438a1.288,1.288,0,0,1,.4-.346,1.114,1.114,0,0,1,.585-.168.85.85,0,0,1,.533.158.762.762,0,0,1,.276.409,1.222,1.222,0,0,1,.423-.4,1.136,1.136,0,0,1,.594-.172.822.822,0,0,1,.631.23.973.973,0,0,1,.214.686v2.19h-.469V-4.544q0-.628-.561-.628a.873.873,0,0,0-.453.136,1.035,1.035,0,0,0-.349.329v2.221H18.91V-4.544q0-.628-.561-.628a.835.835,0,0,0-.444.139,1.138,1.138,0,0,0-.352.332v2.214Zm4.888-1.519a1.684,1.684,0,0,1,.191-.8,1.474,1.474,0,0,1,.534-.576,1.428,1.428,0,0,1,.769-.213,1.4,1.4,0,0,1,.781.217,1.372,1.372,0,0,1,.5.583,1.937,1.937,0,0,1,.17.825v.119H22.475a1.134,1.134,0,0,0,.32.747,1.019,1.019,0,0,0,.764.3,1.34,1.34,0,0,0,.513-.1,1.275,1.275,0,0,0,.43-.288l.224.306a1.65,1.65,0,0,1-1.2.472,1.493,1.493,0,0,1-1.115-.444A1.576,1.576,0,0,1,21.973-4.005Zm.5-.193h1.988a1.106,1.106,0,0,0-.063-.346,1.128,1.128,0,0,0-.176-.322.848.848,0,0,0-.312-.243,1.02,1.02,0,0,0-.444-.093.958.958,0,0,0-.423.092.868.868,0,0,0-.308.24,1.237,1.237,0,0,0-.185.322A1.121,1.121,0,0,0,22.469-4.2Zm3.213,1.712V-5.515h.469v.438a1.508,1.508,0,0,1,.472-.363,1.326,1.326,0,0,1,.616-.152.857.857,0,0,1,.959.98v2.126h-.466V-4.468a.706.706,0,0,0-.178-.544.727.727,0,0,0-.505-.161,1.015,1.015,0,0,0-.507.138,1.246,1.246,0,0,0-.391.334v2.214ZM28.733-5.1v-.413h.5v-.83h.478v.83h.616V-5.1h-.616v1.881a.473.473,0,0,0,.077.283.259.259,0,0,0,.224.106.4.4,0,0,0,.322-.132l.138.358a.774.774,0,0,1-.557.2.66.66,0,0,1-.507-.185.741.741,0,0,1-.173-.525V-5.1Zm3.9,2.616V-6.67H34.31a1.332,1.332,0,0,1,.949.345,1.2,1.2,0,0,1,.368.917,1.337,1.337,0,0,1-.09.5,1.062,1.062,0,0,1-.243.375,1.2,1.2,0,0,1-.348.236,1.257,1.257,0,0,1-.412.106l1.13,1.706h-.616l-1.06-1.663h-.839v1.663Zm.521-2.119h1.1a.846.846,0,0,0,.606-.224.762.762,0,0,0,.236-.579.754.754,0,0,0-.234-.576.851.851,0,0,0-.608-.221h-1.1Zm2.916.6a1.684,1.684,0,0,1,.191-.8,1.474,1.474,0,0,1,.534-.576,1.428,1.428,0,0,1,.769-.213,1.4,1.4,0,0,1,.781.217,1.372,1.372,0,0,1,.5.583,1.937,1.937,0,0,1,.17.825v.119H36.568a1.134,1.134,0,0,0,.32.747,1.019,1.019,0,0,0,.764.3,1.34,1.34,0,0,0,.513-.1,1.276,1.276,0,0,0,.43-.288l.224.306a1.65,1.65,0,0,1-1.2.472A1.493,1.493,0,0,1,36.5-2.854,1.576,1.576,0,0,1,36.065-4.005Zm.5-.193h1.988a1.106,1.106,0,0,0-.063-.346,1.128,1.128,0,0,0-.176-.322A.848.848,0,0,0,38-5.109a1.02,1.02,0,0,0-.444-.093.958.958,0,0,0-.423.092.868.868,0,0,0-.308.24,1.237,1.237,0,0,0-.185.322A1.121,1.121,0,0,0,36.561-4.2Zm3.213,2.867V-5.515h.469v.45a1.267,1.267,0,0,1,.443-.383,1.219,1.219,0,0,1,.58-.144,1.231,1.231,0,0,1,.976.427,1.7,1.7,0,0,1,.372,1.159,1.725,1.725,0,0,1-.372,1.161,1.222,1.222,0,0,1-.976.435A1.18,1.18,0,0,1,40.7-2.55a1.4,1.4,0,0,1-.455-.4v1.614Zm.469-1.988a1,1,0,0,0,.38.346,1.067,1.067,0,0,0,.524.141.862.862,0,0,0,.711-.329,1.309,1.309,0,0,0,.263-.844,1.3,1.3,0,0,0-.263-.841.866.866,0,0,0-.711-.326,1.067,1.067,0,0,0-.524.141,1.008,1.008,0,0,0-.38.343Zm3.121.116a1.769,1.769,0,0,1-.181-.8,1.75,1.75,0,0,1,.181-.8,1.412,1.412,0,0,1,.525-.573,1.473,1.473,0,0,1,.795-.214,1.473,1.473,0,0,1,.795.214A1.4,1.4,0,0,1,46-4.8a1.762,1.762,0,0,1,.179.8A1.782,1.782,0,0,1,46-3.2a1.407,1.407,0,0,1-.524.577,1.465,1.465,0,0,1-.795.216,1.465,1.465,0,0,1-.795-.216A1.418,1.418,0,0,1,43.364-3.2Zm.315-.8a1.3,1.3,0,0,0,.27.832.886.886,0,0,0,.735.342A.91.91,0,0,0,45.228-3a1.008,1.008,0,0,0,.345-.427,1.446,1.446,0,0,0,.113-.58,1.428,1.428,0,0,0-.113-.576,1.01,1.01,0,0,0-.345-.426.91.91,0,0,0-.544-.165.917.917,0,0,0-.545.165,1,1,0,0,0-.346.427A1.431,1.431,0,0,0,43.68-4.005Zm3.268,1.519V-5.515h.469v.484a1.6,1.6,0,0,1,.456-.4,1.084,1.084,0,0,1,.554-.152V-5.1a1.7,1.7,0,0,0-.181-.012.946.946,0,0,0-.472.149.933.933,0,0,0-.358.335v2.144ZM48.6-5.1v-.413h.5v-.83h.478v.83H50.2V-5.1h-.616v1.881a.473.473,0,0,0,.077.283.259.259,0,0,0,.224.106.4.4,0,0,0,.322-.132l.138.358a.774.774,0,0,1-.557.2.66.66,0,0,1-.507-.185.741.741,0,0,1-.173-.525V-5.1Z" transform="translate(7.236 15.659)" fill="#fff"/><g transform="translate(12.545 23.836)"><g transform="translate(0 0)"><path d="M371.186,205.318A26.633,26.633,0,0,0,354,211.578l17.188,20.484Z" transform="translate(-343.457 -204.333)" fill="#62d9e6"/><path d="M334.277,238.8a26.561,26.561,0,0,0-3.176,8.727l26.334,4.643Z" transform="translate(-329.706 -224.441)" fill="#62d9e6"/><path d="M345.022,220.99a26.869,26.869,0,0,0-5.97,7.114l23.158,13.37Z" transform="translate(-334.481 -213.745)" fill="#62d9e6"/><path d="M406.179,206.925a26.687,26.687,0,0,0-9.149-1.607v26.744Z" transform="translate(-369.302 -204.333)" fill="#62d9e6"/><path d="M14.009,50.272A26.706,26.706,0,0,1,5.97,45.62h0A26.867,26.867,0,0,1,0,38.506L23.157,25.137h0L14.009,50.272l9.149-25.136L32.307,0a26.749,26.749,0,0,1-18.3,50.272Z" transform="translate(4.57 2.593)" fill="#4a77c3" stroke="rgba(0,0,0,0)" stroke-width="1"/><path d="M330.485,260.649a26.908,26.908,0,0,0-.41,4.643,26.61,26.61,0,0,0,3.586,13.37l23.158-13.37Z" transform="translate(-329.09 -237.563)" fill="#62d9e6"/><path d="M355.337,202.852a27.729,27.729,0,1,0,27.728,27.729A27.729,27.729,0,0,0,355.337,202.852Zm0,48.554a20.825,20.825,0,1,1,20.825-20.825A20.825,20.825,0,0,1,355.337,251.406Z" transform="translate(-327.609 -202.852)" fill="none"/><path d="M25.149,0A25.149,25.149,0,1,1,0,25.149,25.149,25.149,0,0,1,25.149,0Z" transform="translate(2.645 2.593)" fill="#192f4b"/><g transform="translate(10.985 21.744)"><path d="M.6-4.824l-.085.251H1.807a.584.584,0,0,1-.236.376,1.261,1.261,0,0,1-.753.191H.547v.286a.623.623,0,0,1,.346.1,1.172,1.172,0,0,1,.266.276l.9,1.214H2.62L1.576-3.479a1.4,1.4,0,0,0-.266-.3,1.25,1.25,0,0,0,.657-.3.792.792,0,0,0,.251-.5H2.79l.085-.251H2.223A.911.911,0,0,0,1.9-5.461h.9l.085-.251H.6l-.085.251H.979a.911.911,0,0,1,.617.2.7.7,0,0,1,.216.442ZM4.767-5a1.234,1.234,0,0,1,.5-.39,1.62,1.62,0,0,1,.668-.137,1.376,1.376,0,0,1,.41.061,1.2,1.2,0,0,1,.358.179.85.85,0,0,1,.257.31.949.949,0,0,1,.1.432,1.088,1.088,0,0,1-.083.408,1.846,1.846,0,0,1-.216.391,3.35,3.35,0,0,1-.355.406q-.223.222-.439.4T5.429-2.5H7.071v.372h-2.3v-.336q.343-.267.561-.445t.453-.382a4.914,4.914,0,0,0,.372-.353,3.5,3.5,0,0,0,.255-.309,1.189,1.189,0,0,0,.168-.3.859.859,0,0,0,.05-.285A.536.536,0,0,0,6.425-5a.8.8,0,0,0-.494-.156,1.18,1.18,0,0,0-.523.113,1.092,1.092,0,0,0-.386.309ZM7.7-4.437a1.07,1.07,0,0,1,.082-.415,1.1,1.1,0,0,1,.23-.349,1.061,1.061,0,0,1,.372-.241,1.314,1.314,0,0,1,.491-.089,1.254,1.254,0,0,1,.493.093,1.045,1.045,0,0,1,.368.252,1.392,1.392,0,0,1,.246.382,2.023,2.023,0,0,1,.143.473,3.059,3.059,0,0,1,.044.532,2.626,2.626,0,0,1-.051.528,1.915,1.915,0,0,1-.16.47,1.488,1.488,0,0,1-.267.381,1.131,1.131,0,0,1-.385.255,1.307,1.307,0,0,1-.5.093,1.19,1.19,0,0,1-.929-.4l.211-.311a1.043,1.043,0,0,0,.309.254.876.876,0,0,0,.409.087.811.811,0,0,0,.43-.114.833.833,0,0,0,.3-.306,1.591,1.591,0,0,0,.163-.419,2.054,2.054,0,0,0,.054-.477,1.273,1.273,0,0,0,0-.13,1.171,1.171,0,0,1-.387.36,1.042,1.042,0,0,1-.556.162,1.278,1.278,0,0,1-.553-.115.924.924,0,0,1-.4-.361A1.105,1.105,0,0,1,7.7-4.437Zm.421-.015a.668.668,0,0,0,.217.538.829.829,0,0,0,.557.185.9.9,0,0,0,.473-.138,1.073,1.073,0,0,0,.365-.364,1.539,1.539,0,0,0-.045-.256,1.151,1.151,0,0,0-.1-.249.925.925,0,0,0-.159-.217.7.7,0,0,0-.23-.149.793.793,0,0,0-.308-.058.837.837,0,0,0-.334.065.684.684,0,0,0-.244.169.765.765,0,0,0-.142.227A.661.661,0,0,0,8.117-4.452Zm2.431,2.806a.794.794,0,0,0,.218-.213.565.565,0,0,0,.108-.255.177.177,0,0,1-.071.01.226.226,0,0,1-.17-.074.253.253,0,0,1-.07-.181.268.268,0,0,1,.077-.191.249.249,0,0,1,.187-.081.287.287,0,0,1,.225.1.409.409,0,0,1,.091.278.86.86,0,0,1-.113.425,1.014,1.014,0,0,1-.292.332Zm1.2-.961L12-2.886a1.1,1.1,0,0,0,.921.446.781.781,0,0,0,.556-.2.674.674,0,0,0,.218-.513.68.68,0,0,0-.214-.526.787.787,0,0,0-.555-.2,1.08,1.08,0,0,0-.772.311l-.306-.105v-1.8H13.9V-5.1H12.268V-3.94a1.047,1.047,0,0,1,.341-.217,1.156,1.156,0,0,1,.444-.085,1.151,1.151,0,0,1,.4.071,1.07,1.07,0,0,1,.339.2.931.931,0,0,1,.236.337,1.152,1.152,0,0,1,.088.458,1.022,1.022,0,0,1-.341.8,1.237,1.237,0,0,1-.855.3A1.386,1.386,0,0,1,11.746-2.607ZM14.63-3.8a2.735,2.735,0,0,1,.044-.495,2.088,2.088,0,0,1,.143-.466,1.542,1.542,0,0,1,.245-.393,1.077,1.077,0,0,1,.364-.27,1.134,1.134,0,0,1,.485-.1,1.128,1.128,0,0,1,.483.1,1.077,1.077,0,0,1,.364.27A1.542,1.542,0,0,1,17-4.761a2.085,2.085,0,0,1,.143.467,2.741,2.741,0,0,1,.044.494,2.741,2.741,0,0,1-.044.494A2.108,2.108,0,0,1,17-2.838a1.557,1.557,0,0,1-.245.4,1.083,1.083,0,0,1-.364.272,1.117,1.117,0,0,1-.483.1,1.123,1.123,0,0,1-.485-.1,1.083,1.083,0,0,1-.364-.272,1.551,1.551,0,0,1-.245-.4,2.135,2.135,0,0,1-.143-.468A2.721,2.721,0,0,1,14.63-3.8Zm.429,0a2.582,2.582,0,0,0,.045.5,1.792,1.792,0,0,0,.141.431.78.78,0,0,0,.267.316.694.694,0,0,0,.4.116.694.694,0,0,0,.4-.116.78.78,0,0,0,.267-.316,1.792,1.792,0,0,0,.141-.431,2.582,2.582,0,0,0,.045-.5,2.807,2.807,0,0,0-.027-.4,1.862,1.862,0,0,0-.091-.366,1.2,1.2,0,0,0-.159-.308.7.7,0,0,0-.244-.207.708.708,0,0,0-.332-.077.708.708,0,0,0-.332.077.7.7,0,0,0-.244.207,1.2,1.2,0,0,0-.159.308,1.863,1.863,0,0,0-.091.366A2.807,2.807,0,0,0,15.059-3.8Zm2.519,2.154a.794.794,0,0,0,.218-.213.565.565,0,0,0,.108-.255.177.177,0,0,1-.071.01.226.226,0,0,1-.17-.074.253.253,0,0,1-.07-.181.268.268,0,0,1,.077-.191.249.249,0,0,1,.187-.081.287.287,0,0,1,.225.1.409.409,0,0,1,.091.278.86.86,0,0,1-.113.425,1.014,1.014,0,0,1-.292.332ZM18.545-3.8A2.735,2.735,0,0,1,18.59-4.3a2.088,2.088,0,0,1,.143-.466,1.542,1.542,0,0,1,.245-.393,1.077,1.077,0,0,1,.364-.27,1.134,1.134,0,0,1,.485-.1,1.128,1.128,0,0,1,.483.1,1.077,1.077,0,0,1,.364.27,1.542,1.542,0,0,1,.245.393,2.085,2.085,0,0,1,.143.467,2.741,2.741,0,0,1,.044.494,2.741,2.741,0,0,1-.044.494,2.108,2.108,0,0,1-.143.468,1.557,1.557,0,0,1-.245.4,1.083,1.083,0,0,1-.364.272,1.117,1.117,0,0,1-.483.1,1.123,1.123,0,0,1-.485-.1,1.083,1.083,0,0,1-.364-.272,1.551,1.551,0,0,1-.245-.4,2.135,2.135,0,0,1-.143-.468A2.721,2.721,0,0,1,18.545-3.8Zm.429,0a2.582,2.582,0,0,0,.045.5,1.792,1.792,0,0,0,.141.431.78.78,0,0,0,.267.316.694.694,0,0,0,.4.116.694.694,0,0,0,.4-.116.78.78,0,0,0,.267-.316,1.792,1.792,0,0,0,.141-.431,2.582,2.582,0,0,0,.045-.5,2.807,2.807,0,0,0-.027-.4,1.863,1.863,0,0,0-.091-.366,1.2,1.2,0,0,0-.159-.308.7.7,0,0,0-.244-.207.708.708,0,0,0-.332-.077.708.708,0,0,0-.332.077.7.7,0,0,0-.244.207,1.2,1.2,0,0,0-.159.308A1.863,1.863,0,0,0,19-4.2,2.807,2.807,0,0,0,18.974-3.8Zm2.641,0A2.734,2.734,0,0,1,21.66-4.3a2.088,2.088,0,0,1,.143-.466,1.542,1.542,0,0,1,.245-.393,1.077,1.077,0,0,1,.364-.27,1.134,1.134,0,0,1,.485-.1,1.128,1.128,0,0,1,.483.1,1.077,1.077,0,0,1,.364.27,1.542,1.542,0,0,1,.245.393,2.085,2.085,0,0,1,.143.467,2.741,2.741,0,0,1,.044.494,2.741,2.741,0,0,1-.044.494,2.108,2.108,0,0,1-.143.468,1.557,1.557,0,0,1-.245.4,1.083,1.083,0,0,1-.364.272,1.117,1.117,0,0,1-.483.1,1.123,1.123,0,0,1-.485-.1,1.084,1.084,0,0,1-.364-.272,1.551,1.551,0,0,1-.245-.4,2.135,2.135,0,0,1-.143-.468A2.721,2.721,0,0,1,21.616-3.8Zm.429,0a2.582,2.582,0,0,0,.045.5,1.792,1.792,0,0,0,.141.431.78.78,0,0,0,.267.316.694.694,0,0,0,.4.116.694.694,0,0,0,.4-.116.78.78,0,0,0,.267-.316A1.792,1.792,0,0,0,23.7-3.3a2.582,2.582,0,0,0,.045-.5,2.807,2.807,0,0,0-.027-.4,1.863,1.863,0,0,0-.091-.366,1.2,1.2,0,0,0-.159-.308.7.7,0,0,0-.244-.207.708.708,0,0,0-.332-.077.708.708,0,0,0-.332.077.7.7,0,0,0-.244.207,1.2,1.2,0,0,0-.159.308,1.863,1.863,0,0,0-.091.366A2.807,2.807,0,0,0,22.044-3.8Zm2.519,2.154a.794.794,0,0,0,.218-.213.566.566,0,0,0,.108-.255.177.177,0,0,1-.071.01.226.226,0,0,1-.17-.074.253.253,0,0,1-.07-.181.268.268,0,0,1,.077-.191.249.249,0,0,1,.187-.081.287.287,0,0,1,.225.1.409.409,0,0,1,.091.278.86.86,0,0,1-.113.425,1.014,1.014,0,0,1-.292.332ZM25.531-3.8a2.735,2.735,0,0,1,.044-.495,2.088,2.088,0,0,1,.143-.466,1.542,1.542,0,0,1,.245-.393,1.077,1.077,0,0,1,.364-.27,1.134,1.134,0,0,1,.485-.1,1.128,1.128,0,0,1,.483.1,1.078,1.078,0,0,1,.364.27,1.542,1.542,0,0,1,.245.393,2.085,2.085,0,0,1,.143.467,2.741,2.741,0,0,1,.044.494,2.741,2.741,0,0,1-.044.494,2.108,2.108,0,0,1-.143.468,1.557,1.557,0,0,1-.245.4,1.084,1.084,0,0,1-.364.272,1.117,1.117,0,0,1-.483.1,1.123,1.123,0,0,1-.485-.1,1.083,1.083,0,0,1-.364-.272,1.551,1.551,0,0,1-.245-.4,2.135,2.135,0,0,1-.143-.468A2.721,2.721,0,0,1,25.531-3.8Zm.429,0a2.582,2.582,0,0,0,.045.5,1.792,1.792,0,0,0,.141.431.78.78,0,0,0,.267.316.694.694,0,0,0,.4.116.694.694,0,0,0,.4-.116.78.78,0,0,0,.267-.316A1.792,1.792,0,0,0,27.62-3.3a2.582,2.582,0,0,0,.045-.5,2.807,2.807,0,0,0-.027-.4,1.863,1.863,0,0,0-.091-.366,1.2,1.2,0,0,0-.159-.308.7.7,0,0,0-.244-.207.708.708,0,0,0-.332-.077.708.708,0,0,0-.332.077.7.7,0,0,0-.244.207,1.2,1.2,0,0,0-.159.308,1.863,1.863,0,0,0-.091.366A2.807,2.807,0,0,0,25.96-3.8Zm2.641,0a2.734,2.734,0,0,1,.044-.495,2.088,2.088,0,0,1,.143-.466,1.542,1.542,0,0,1,.245-.393,1.078,1.078,0,0,1,.364-.27,1.134,1.134,0,0,1,.485-.1,1.128,1.128,0,0,1,.483.1,1.077,1.077,0,0,1,.364.27,1.542,1.542,0,0,1,.245.393,2.085,2.085,0,0,1,.143.467,2.741,2.741,0,0,1,.044.494,2.741,2.741,0,0,1-.044.494,2.108,2.108,0,0,1-.143.468,1.557,1.557,0,0,1-.245.4,1.084,1.084,0,0,1-.364.272,1.117,1.117,0,0,1-.483.1,1.123,1.123,0,0,1-.485-.1,1.084,1.084,0,0,1-.364-.272,1.551,1.551,0,0,1-.245-.4,2.134,2.134,0,0,1-.143-.468A2.721,2.721,0,0,1,28.6-3.8Zm.429,0a2.582,2.582,0,0,0,.045.5,1.792,1.792,0,0,0,.141.431.78.78,0,0,0,.267.316.694.694,0,0,0,.4.116.694.694,0,0,0,.4-.116.78.78,0,0,0,.267-.316A1.792,1.792,0,0,0,30.69-3.3a2.582,2.582,0,0,0,.045-.5,2.807,2.807,0,0,0-.027-.4,1.863,1.863,0,0,0-.091-.366,1.2,1.2,0,0,0-.159-.308.7.7,0,0,0-.244-.207.708.708,0,0,0-.332-.077.708.708,0,0,0-.332.077.7.7,0,0,0-.244.207,1.2,1.2,0,0,0-.159.308,1.863,1.863,0,0,0-.091.366A2.807,2.807,0,0,0,29.03-3.8Zm2.641,0a2.735,2.735,0,0,1,.044-.495,2.088,2.088,0,0,1,.143-.466,1.542,1.542,0,0,1,.245-.393,1.077,1.077,0,0,1,.364-.27,1.134,1.134,0,0,1,.485-.1,1.128,1.128,0,0,1,.483.1,1.078,1.078,0,0,1,.364.27,1.542,1.542,0,0,1,.245.393,2.085,2.085,0,0,1,.143.467,2.741,2.741,0,0,1,.044.494,2.741,2.741,0,0,1-.044.494,2.108,2.108,0,0,1-.143.468,1.557,1.557,0,0,1-.245.4,1.084,1.084,0,0,1-.364.272,1.117,1.117,0,0,1-.483.1,1.123,1.123,0,0,1-.485-.1,1.084,1.084,0,0,1-.364-.272,1.551,1.551,0,0,1-.245-.4,2.135,2.135,0,0,1-.143-.468A2.721,2.721,0,0,1,31.672-3.8Zm.429,0a2.582,2.582,0,0,0,.045.5,1.792,1.792,0,0,0,.141.431.78.78,0,0,0,.267.316.694.694,0,0,0,.4.116.694.694,0,0,0,.4-.116.78.78,0,0,0,.267-.316A1.792,1.792,0,0,0,33.76-3.3a2.582,2.582,0,0,0,.045-.5,2.807,2.807,0,0,0-.027-.4,1.863,1.863,0,0,0-.091-.366,1.2,1.2,0,0,0-.159-.308.7.7,0,0,0-.244-.207.708.708,0,0,0-.332-.077.708.708,0,0,0-.332.077.7.7,0,0,0-.244.207,1.2,1.2,0,0,0-.159.308,1.862,1.862,0,0,0-.091.366A2.807,2.807,0,0,0,32.1-3.8Z" transform="translate(-0.512 12.803)" fill="#fff"/><path d="M.625-1.989V-5.336h.417v3.347Zm1.183,0V-4.412h.375v.35a1.207,1.207,0,0,1,.377-.29,1.061,1.061,0,0,1,.493-.121.686.686,0,0,1,.767.784v1.7H3.448V-3.574a.565.565,0,0,0-.142-.435.582.582,0,0,0-.4-.129.812.812,0,0,0-.406.11,1,1,0,0,0-.312.267v1.772ZM4.215-4.412h.412l.8,1.987.806-1.987h.407L5.636-1.989H5.224ZM6.893-3.2a1.347,1.347,0,0,1,.153-.638A1.179,1.179,0,0,1,7.474-4.3a1.143,1.143,0,0,1,.615-.17,1.119,1.119,0,0,1,.625.174,1.1,1.1,0,0,1,.4.467,1.55,1.55,0,0,1,.136.66v.1H7.295a.907.907,0,0,0,.256.6.815.815,0,0,0,.611.24,1.072,1.072,0,0,0,.41-.081,1.02,1.02,0,0,0,.344-.23L9.1-2.3a1.32,1.32,0,0,1-.963.377,1.194,1.194,0,0,1-.892-.355A1.261,1.261,0,0,1,6.893-3.2Zm.4-.154H8.88a.885.885,0,0,0-.05-.277.9.9,0,0,0-.141-.257.679.679,0,0,0-.25-.195.816.816,0,0,0-.355-.075.766.766,0,0,0-.338.074A.694.694,0,0,0,7.5-3.9a.989.989,0,0,0-.148.257A.9.9,0,0,0,7.29-3.359ZM9.654-2.31l.189-.272a1.037,1.037,0,0,0,.345.247,1.061,1.061,0,0,0,.453.1.694.694,0,0,0,.425-.115.36.36,0,0,0,.153-.3.266.266,0,0,0-.083-.2.557.557,0,0,0-.216-.125q-.132-.044-.292-.081t-.32-.086a1.613,1.613,0,0,1-.293-.12.575.575,0,0,1-.216-.2.57.57,0,0,1-.083-.312.623.623,0,0,1,.24-.5,1,1,0,0,1,.659-.2,1.2,1.2,0,0,1,.9.353l-.174.26a.808.808,0,0,0-.3-.222,1.022,1.022,0,0,0-.42-.085.639.639,0,0,0-.39.109.328.328,0,0,0-.147.273.226.226,0,0,0,.083.178.586.586,0,0,0,.214.113q.131.04.292.076t.321.087a1.53,1.53,0,0,1,.292.126.586.586,0,0,1,.214.214.634.634,0,0,1,.083.331.654.654,0,0,1-.249.526,1.064,1.064,0,0,1-.7.207A1.294,1.294,0,0,1,9.654-2.31Zm2.21-1.772v-.331h.4v-.664h.382v.664h.493v.331h-.493v1.5a.378.378,0,0,0,.061.227.207.207,0,0,0,.179.085.321.321,0,0,0,.257-.105l.11.287a.619.619,0,0,1-.446.157.528.528,0,0,1-.406-.148.593.593,0,0,1-.138-.42V-4.081Zm1.8,2.093V-4.412h.375v.35a1.03,1.03,0,0,1,.321-.277.891.891,0,0,1,.468-.135.68.68,0,0,1,.426.126.61.61,0,0,1,.221.327.978.978,0,0,1,.338-.316.908.908,0,0,1,.475-.137.657.657,0,0,1,.5.184.778.778,0,0,1,.172.549v1.752h-.375V-3.635q0-.5-.448-.5a.7.7,0,0,0-.363.109.828.828,0,0,0-.279.263v1.776h-.375V-3.635q0-.5-.448-.5a.668.668,0,0,0-.355.111.91.91,0,0,0-.282.266v1.772ZM17.578-3.2a1.347,1.347,0,0,1,.153-.638,1.179,1.179,0,0,1,.428-.461,1.143,1.143,0,0,1,.615-.17A1.119,1.119,0,0,1,19.4-4.3a1.1,1.1,0,0,1,.4.467,1.55,1.55,0,0,1,.136.66v.1H17.98a.907.907,0,0,0,.256.6.815.815,0,0,0,.611.24,1.072,1.072,0,0,0,.41-.081,1.02,1.02,0,0,0,.344-.23l.179.245a1.32,1.32,0,0,1-.963.377,1.194,1.194,0,0,1-.892-.355A1.261,1.261,0,0,1,17.578-3.2Zm.4-.154h1.59a.885.885,0,0,0-.05-.277.9.9,0,0,0-.141-.257.679.679,0,0,0-.25-.195.816.816,0,0,0-.355-.075.766.766,0,0,0-.338.074.694.694,0,0,0-.246.192.989.989,0,0,0-.148.257A.9.9,0,0,0,17.975-3.359Zm2.57,1.37V-4.412h.375v.35a1.207,1.207,0,0,1,.377-.29,1.061,1.061,0,0,1,.493-.121.686.686,0,0,1,.767.784v1.7h-.372V-3.574a.565.565,0,0,0-.142-.435.582.582,0,0,0-.4-.129.812.812,0,0,0-.406.11,1,1,0,0,0-.312.267v1.772Zm2.44-2.093v-.331h.4v-.664h.382v.664h.493v.331H23.77v1.5a.378.378,0,0,0,.061.227.207.207,0,0,0,.179.085.321.321,0,0,0,.257-.105l.11.287a.619.619,0,0,1-.446.157.528.528,0,0,1-.406-.148.593.593,0,0,1-.138-.42V-4.081Z" transform="translate(4.464 5.336)" fill="#fff"/></g></g><g transform="translate(64.609 0)"><g transform="translate(0)"><path d="M371.186,205.318A26.633,26.633,0,0,0,354,211.578l17.188,20.484Z" transform="translate(-343.457 -204.333)" fill="#62d9e6"/><path d="M334.277,238.8a26.561,26.561,0,0,0-3.176,8.727l26.334,4.643Z" transform="translate(-329.706 -224.441)" fill="#62d9e6"/><path d="M345.022,220.99a26.869,26.869,0,0,0-5.97,7.114l23.158,13.37Z" transform="translate(-334.481 -213.745)" fill="#62d9e6"/><path d="M406.179,206.925a26.687,26.687,0,0,0-9.149-1.607v26.744Z" transform="translate(-369.302 -204.333)" fill="#62d9e6"/><path d="M14.009,50.272A26.706,26.706,0,0,1,5.97,45.62h0A26.867,26.867,0,0,1,0,38.506L23.157,25.137h0L14.009,50.272l9.149-25.136L32.307,0a26.749,26.749,0,0,1-18.3,50.272Z" transform="translate(4.57 2.593)" fill="#4a77c3" stroke="rgba(0,0,0,0)" stroke-width="1"/><path d="M330.485,260.649a26.908,26.908,0,0,0-.41,4.643,26.61,26.61,0,0,0,3.586,13.37l23.158-13.37Z" transform="translate(-329.09 -237.563)" fill="#62d9e6"/><path d="M355.337,202.852a27.729,27.729,0,1,0,27.728,27.729A27.729,27.729,0,0,0,355.337,202.852Zm0,48.554a20.825,20.825,0,1,1,20.825-20.825A20.825,20.825,0,0,1,355.337,251.406Z" transform="translate(-327.609 -202.852)" fill="none"/><path d="M25.149,0A25.149,25.149,0,1,1,0,25.149,25.149,25.149,0,0,1,25.149,0Z" transform="translate(2.645 2.593)" fill="#192f4b"/></g><g transform="translate(14.121 21.744)"><path d="M.6-4.824l-.085.251H1.807a.584.584,0,0,1-.236.376,1.261,1.261,0,0,1-.753.191H.547v.286a.623.623,0,0,1,.346.1,1.172,1.172,0,0,1,.266.276l.9,1.214H2.62L1.576-3.479a1.4,1.4,0,0,0-.266-.3,1.25,1.25,0,0,0,.657-.3.792.792,0,0,0,.251-.5H2.79l.085-.251H2.223A.911.911,0,0,0,1.9-5.461h.9l.085-.251H.6l-.085.251H.979a.911.911,0,0,1,.617.2.7.7,0,0,1,.216.442ZM4.831-2.607l.257-.279a1.1,1.1,0,0,0,.921.446.781.781,0,0,0,.556-.2.674.674,0,0,0,.218-.513.68.68,0,0,0-.214-.526.787.787,0,0,0-.555-.2,1.08,1.08,0,0,0-.772.311l-.306-.105v-1.8H6.985V-5.1H5.353V-3.94a1.047,1.047,0,0,1,.341-.217,1.156,1.156,0,0,1,.444-.085,1.151,1.151,0,0,1,.4.071,1.07,1.07,0,0,1,.339.2.931.931,0,0,1,.236.337,1.152,1.152,0,0,1,.088.458,1.022,1.022,0,0,1-.341.8,1.237,1.237,0,0,1-.855.3A1.386,1.386,0,0,1,4.831-2.607ZM7.715-3.8A2.735,2.735,0,0,1,7.759-4.3,2.088,2.088,0,0,1,7.9-4.761a1.542,1.542,0,0,1,.245-.393,1.077,1.077,0,0,1,.364-.27A1.134,1.134,0,0,1,9-5.525a1.128,1.128,0,0,1,.483.1,1.077,1.077,0,0,1,.364.27,1.542,1.542,0,0,1,.245.393,2.085,2.085,0,0,1,.143.467,2.741,2.741,0,0,1,.044.494,2.741,2.741,0,0,1-.044.494,2.108,2.108,0,0,1-.143.468,1.557,1.557,0,0,1-.245.4,1.084,1.084,0,0,1-.364.272,1.117,1.117,0,0,1-.483.1,1.123,1.123,0,0,1-.485-.1,1.084,1.084,0,0,1-.364-.272,1.551,1.551,0,0,1-.245-.4,2.135,2.135,0,0,1-.143-.468A2.721,2.721,0,0,1,7.715-3.8Zm.429,0a2.582,2.582,0,0,0,.045.5,1.792,1.792,0,0,0,.141.431.78.78,0,0,0,.267.316A.694.694,0,0,0,9-2.44a.694.694,0,0,0,.4-.116.78.78,0,0,0,.267-.316A1.792,1.792,0,0,0,9.8-3.3a2.582,2.582,0,0,0,.045-.5,2.807,2.807,0,0,0-.027-.4,1.862,1.862,0,0,0-.091-.366,1.2,1.2,0,0,0-.159-.308.7.7,0,0,0-.244-.207A.708.708,0,0,0,9-5.155a.708.708,0,0,0-.332.077.7.7,0,0,0-.244.207,1.2,1.2,0,0,0-.159.308,1.863,1.863,0,0,0-.091.366A2.807,2.807,0,0,0,8.144-3.8Zm2.519,2.154a.794.794,0,0,0,.218-.213.565.565,0,0,0,.108-.255.177.177,0,0,1-.071.01.226.226,0,0,1-.17-.074.253.253,0,0,1-.07-.181.268.268,0,0,1,.077-.191.249.249,0,0,1,.187-.081.287.287,0,0,1,.225.1.409.409,0,0,1,.091.278.86.86,0,0,1-.113.425,1.014,1.014,0,0,1-.292.332ZM11.631-3.8a2.735,2.735,0,0,1,.044-.495,2.088,2.088,0,0,1,.143-.466,1.542,1.542,0,0,1,.245-.393,1.077,1.077,0,0,1,.364-.27,1.134,1.134,0,0,1,.485-.1,1.128,1.128,0,0,1,.483.1,1.077,1.077,0,0,1,.364.27A1.542,1.542,0,0,1,14-4.761a2.085,2.085,0,0,1,.143.467,2.741,2.741,0,0,1,.044.494,2.741,2.741,0,0,1-.044.494A2.108,2.108,0,0,1,14-2.838a1.557,1.557,0,0,1-.245.4,1.083,1.083,0,0,1-.364.272,1.117,1.117,0,0,1-.483.1,1.123,1.123,0,0,1-.485-.1,1.084,1.084,0,0,1-.364-.272,1.551,1.551,0,0,1-.245-.4,2.134,2.134,0,0,1-.143-.468A2.721,2.721,0,0,1,11.631-3.8Zm.429,0a2.582,2.582,0,0,0,.045.5,1.792,1.792,0,0,0,.141.431.78.78,0,0,0,.267.316.694.694,0,0,0,.4.116.694.694,0,0,0,.4-.116.78.78,0,0,0,.267-.316A1.792,1.792,0,0,0,13.72-3.3a2.582,2.582,0,0,0,.045-.5,2.807,2.807,0,0,0-.027-.4,1.863,1.863,0,0,0-.091-.366,1.2,1.2,0,0,0-.159-.308.7.7,0,0,0-.244-.207.708.708,0,0,0-.332-.077.708.708,0,0,0-.332.077.7.7,0,0,0-.244.207,1.2,1.2,0,0,0-.159.308,1.863,1.863,0,0,0-.091.366A2.807,2.807,0,0,0,12.06-3.8Zm2.641,0a2.735,2.735,0,0,1,.044-.495,2.088,2.088,0,0,1,.143-.466,1.542,1.542,0,0,1,.245-.393,1.077,1.077,0,0,1,.364-.27,1.134,1.134,0,0,1,.485-.1,1.128,1.128,0,0,1,.483.1,1.077,1.077,0,0,1,.364.27,1.542,1.542,0,0,1,.245.393,2.085,2.085,0,0,1,.143.467,2.741,2.741,0,0,1,.044.494,2.741,2.741,0,0,1-.044.494,2.108,2.108,0,0,1-.143.468,1.557,1.557,0,0,1-.245.4,1.084,1.084,0,0,1-.364.272,1.117,1.117,0,0,1-.483.1,1.123,1.123,0,0,1-.485-.1,1.084,1.084,0,0,1-.364-.272,1.551,1.551,0,0,1-.245-.4,2.134,2.134,0,0,1-.143-.468A2.721,2.721,0,0,1,14.7-3.8Zm.429,0a2.582,2.582,0,0,0,.045.5,1.792,1.792,0,0,0,.141.431.78.78,0,0,0,.267.316.694.694,0,0,0,.4.116.694.694,0,0,0,.4-.116.78.78,0,0,0,.267-.316A1.792,1.792,0,0,0,16.79-3.3a2.582,2.582,0,0,0,.045-.5,2.807,2.807,0,0,0-.027-.4,1.863,1.863,0,0,0-.091-.366,1.2,1.2,0,0,0-.159-.308.7.7,0,0,0-.244-.207.708.708,0,0,0-.332-.077.708.708,0,0,0-.332.077.7.7,0,0,0-.244.207,1.2,1.2,0,0,0-.159.308,1.863,1.863,0,0,0-.091.366A2.807,2.807,0,0,0,15.13-3.8Zm2.519,2.154a.794.794,0,0,0,.218-.213.566.566,0,0,0,.108-.255.177.177,0,0,1-.071.01.226.226,0,0,1-.17-.074.253.253,0,0,1-.07-.181.268.268,0,0,1,.077-.191.249.249,0,0,1,.187-.081.287.287,0,0,1,.225.1.409.409,0,0,1,.091.278.86.86,0,0,1-.113.425,1.014,1.014,0,0,1-.292.332ZM18.616-3.8a2.735,2.735,0,0,1,.044-.495,2.088,2.088,0,0,1,.143-.466,1.542,1.542,0,0,1,.245-.393,1.077,1.077,0,0,1,.364-.27,1.134,1.134,0,0,1,.485-.1,1.128,1.128,0,0,1,.483.1,1.077,1.077,0,0,1,.364.27,1.542,1.542,0,0,1,.245.393,2.085,2.085,0,0,1,.143.467,2.741,2.741,0,0,1,.044.494,2.741,2.741,0,0,1-.044.494,2.108,2.108,0,0,1-.143.468,1.557,1.557,0,0,1-.245.4,1.084,1.084,0,0,1-.364.272,1.117,1.117,0,0,1-.483.1,1.123,1.123,0,0,1-.485-.1,1.084,1.084,0,0,1-.364-.272,1.551,1.551,0,0,1-.245-.4,2.135,2.135,0,0,1-.143-.468A2.721,2.721,0,0,1,18.616-3.8Zm.429,0a2.582,2.582,0,0,0,.045.5,1.792,1.792,0,0,0,.141.431.78.78,0,0,0,.267.316.694.694,0,0,0,.4.116.694.694,0,0,0,.4-.116.78.78,0,0,0,.267-.316,1.792,1.792,0,0,0,.141-.431,2.582,2.582,0,0,0,.045-.5,2.807,2.807,0,0,0-.027-.4,1.863,1.863,0,0,0-.091-.366,1.2,1.2,0,0,0-.159-.308.7.7,0,0,0-.244-.207.708.708,0,0,0-.332-.077.708.708,0,0,0-.332.077.7.7,0,0,0-.244.207,1.2,1.2,0,0,0-.159.308,1.863,1.863,0,0,0-.091.366A2.807,2.807,0,0,0,19.045-3.8Zm2.641,0a2.735,2.735,0,0,1,.044-.495,2.088,2.088,0,0,1,.143-.466,1.542,1.542,0,0,1,.245-.393,1.077,1.077,0,0,1,.364-.27,1.134,1.134,0,0,1,.485-.1,1.128,1.128,0,0,1,.483.1,1.077,1.077,0,0,1,.364.27,1.542,1.542,0,0,1,.245.393,2.085,2.085,0,0,1,.143.467,2.741,2.741,0,0,1,.044.494,2.741,2.741,0,0,1-.044.494,2.108,2.108,0,0,1-.143.468,1.557,1.557,0,0,1-.245.4,1.084,1.084,0,0,1-.364.272,1.117,1.117,0,0,1-.483.1,1.123,1.123,0,0,1-.485-.1,1.084,1.084,0,0,1-.364-.272,1.551,1.551,0,0,1-.245-.4,2.134,2.134,0,0,1-.143-.468A2.721,2.721,0,0,1,21.687-3.8Zm.429,0a2.582,2.582,0,0,0,.045.5,1.792,1.792,0,0,0,.141.431.78.78,0,0,0,.267.316.694.694,0,0,0,.4.116.694.694,0,0,0,.4-.116.78.78,0,0,0,.267-.316,1.792,1.792,0,0,0,.141-.431,2.582,2.582,0,0,0,.045-.5,2.807,2.807,0,0,0-.027-.4,1.863,1.863,0,0,0-.091-.366,1.2,1.2,0,0,0-.159-.308.7.7,0,0,0-.244-.207.708.708,0,0,0-.332-.077.708.708,0,0,0-.332.077.7.7,0,0,0-.244.207,1.2,1.2,0,0,0-.159.308,1.863,1.863,0,0,0-.091.366A2.807,2.807,0,0,0,22.115-3.8Zm2.641,0A2.735,2.735,0,0,1,24.8-4.3a2.088,2.088,0,0,1,.143-.466,1.542,1.542,0,0,1,.245-.393,1.077,1.077,0,0,1,.364-.27,1.134,1.134,0,0,1,.485-.1,1.128,1.128,0,0,1,.483.1,1.077,1.077,0,0,1,.364.27,1.542,1.542,0,0,1,.245.393,2.085,2.085,0,0,1,.143.467,2.741,2.741,0,0,1,.044.494,2.741,2.741,0,0,1-.044.494,2.108,2.108,0,0,1-.143.468,1.557,1.557,0,0,1-.245.4,1.083,1.083,0,0,1-.364.272,1.117,1.117,0,0,1-.483.1,1.123,1.123,0,0,1-.485-.1,1.084,1.084,0,0,1-.364-.272,1.551,1.551,0,0,1-.245-.4,2.135,2.135,0,0,1-.143-.468A2.721,2.721,0,0,1,24.757-3.8Zm.429,0a2.582,2.582,0,0,0,.045.5,1.792,1.792,0,0,0,.141.431.78.78,0,0,0,.267.316.694.694,0,0,0,.4.116.694.694,0,0,0,.4-.116.78.78,0,0,0,.267-.316,1.792,1.792,0,0,0,.141-.431,2.582,2.582,0,0,0,.045-.5,2.807,2.807,0,0,0-.027-.4,1.863,1.863,0,0,0-.091-.366,1.2,1.2,0,0,0-.159-.308.7.7,0,0,0-.244-.207.708.708,0,0,0-.332-.077.708.708,0,0,0-.332.077.7.7,0,0,0-.244.207,1.2,1.2,0,0,0-.159.308,1.863,1.863,0,0,0-.091.366A2.807,2.807,0,0,0,25.186-3.8Z" transform="translate(-0.512 12.803)" fill="#fff"/><path d="M.625-1.989V-5.336H1.97a1.066,1.066,0,0,1,.76.276.958.958,0,0,1,.294.734,1.069,1.069,0,0,1-.072.4.849.849,0,0,1-.195.3.962.962,0,0,1-.278.189,1.006,1.006,0,0,1-.33.085l.9,1.365H2.561L1.713-3.319H1.042v1.331Zm.417-1.7h.877A.677.677,0,0,0,2.4-3.863a.609.609,0,0,0,.189-.463.6.6,0,0,0-.187-.461.681.681,0,0,0-.486-.176H1.042Zm2.333.48a1.347,1.347,0,0,1,.153-.638A1.179,1.179,0,0,1,3.955-4.3a1.143,1.143,0,0,1,.615-.17,1.119,1.119,0,0,1,.625.174,1.1,1.1,0,0,1,.4.467,1.55,1.55,0,0,1,.136.66v.1H3.776a.907.907,0,0,0,.256.6.815.815,0,0,0,.611.24,1.072,1.072,0,0,0,.41-.081A1.02,1.02,0,0,0,5.4-2.55l.179.245a1.32,1.32,0,0,1-.963.377,1.194,1.194,0,0,1-.892-.355A1.261,1.261,0,0,1,3.374-3.2Zm.4-.154h1.59a.885.885,0,0,0-.05-.277.9.9,0,0,0-.141-.257.679.679,0,0,0-.25-.195.816.816,0,0,0-.355-.075.766.766,0,0,0-.338.074.694.694,0,0,0-.246.192.989.989,0,0,0-.148.257A.9.9,0,0,0,3.771-3.359Zm2.242-.723v-.331h.4v-.664H6.8v.664H7.29v.331H6.8v1.5a.378.378,0,0,0,.061.227.207.207,0,0,0,.179.085.321.321,0,0,0,.257-.105l.11.287a.619.619,0,0,1-.446.157.528.528,0,0,1-.406-.148.593.593,0,0,1-.138-.42V-4.081Zm1.8,1.38v-1.71h.375v1.6a.55.55,0,0,0,.14.428.6.6,0,0,0,.407.124.848.848,0,0,0,.407-.105.879.879,0,0,0,.306-.26V-4.412h.377v2.423H9.451v-.341a1.258,1.258,0,0,1-.38.287,1.056,1.056,0,0,1-.483.115A.683.683,0,0,1,7.817-2.7Zm2.764.713V-4.412h.375v.387a1.276,1.276,0,0,1,.365-.322.867.867,0,0,1,.444-.121v.387a1.361,1.361,0,0,0-.145-.01.757.757,0,0,0-.377.119.746.746,0,0,0-.287.268v1.715Zm1.654,0V-4.412h.375v.35a1.207,1.207,0,0,1,.377-.29,1.061,1.061,0,0,1,.493-.121.686.686,0,0,1,.767.784v1.7h-.372V-3.574a.565.565,0,0,0-.142-.435.582.582,0,0,0-.4-.129.812.812,0,0,0-.406.11,1,1,0,0,0-.312.267v1.772ZM14.8-2.31l.189-.272a1.037,1.037,0,0,0,.345.247,1.061,1.061,0,0,0,.453.1.694.694,0,0,0,.425-.115.36.36,0,0,0,.153-.3.266.266,0,0,0-.083-.2.557.557,0,0,0-.216-.125q-.132-.044-.292-.081t-.32-.086a1.613,1.613,0,0,1-.293-.12.575.575,0,0,1-.216-.2.57.57,0,0,1-.083-.312.623.623,0,0,1,.24-.5,1,1,0,0,1,.659-.2,1.2,1.2,0,0,1,.9.353l-.174.26a.808.808,0,0,0-.3-.222,1.022,1.022,0,0,0-.42-.085.639.639,0,0,0-.39.109.328.328,0,0,0-.147.273.226.226,0,0,0,.083.178.586.586,0,0,0,.214.113q.131.04.292.076t.321.087a1.531,1.531,0,0,1,.292.126.586.586,0,0,1,.214.214.634.634,0,0,1,.083.331.654.654,0,0,1-.249.526,1.064,1.064,0,0,1-.7.207A1.294,1.294,0,0,1,14.8-2.31Z" transform="translate(5.091 5.336)" fill="#fff"/></g></g></g></g><g transform="translate(123.617)"><g transform="matrix(1, 0, 0, 1, -132.62, -30)" filter="url(#e)"><path d="M3.136,0H166.2a3.136,3.136,0,0,1,3.136,3.136V103.228a3.136,3.136,0,0,1-3.136,3.136H3.136A3.136,3.136,0,0,1,0,103.228V3.136A3.136,3.136,0,0,1,3.136,0Z" transform="translate(132.62 30)" fill="#122134"/></g><g transform="translate(8.737 13.776)"><g transform="translate(16.197 74.701)"><path d="M9.495,8.52l2.363-5.857h.9L15.116,8.52h-.832l-.519-1.308H10.85L10.331,8.52Zm1.574-1.951h2.487l-1.248-3.16Zm4.678.7V4.279H16.4V7.07a.962.962,0,0,0,.244.748,1.042,1.042,0,0,0,.712.217,1.485,1.485,0,0,0,.712-.184,1.538,1.538,0,0,0,.536-.455V4.279h.66V8.52h-.66v-.6a2.2,2.2,0,0,1-.665.5,1.848,1.848,0,0,1-.845.2A1.2,1.2,0,0,1,15.747,7.272Zm4.588-.9a2.353,2.353,0,0,1,.523-1.606,1.73,1.73,0,0,1,1.368-.6,1.669,1.669,0,0,1,.8.2,1.886,1.886,0,0,1,.632.549V4.279h.66V8.459a1.959,1.959,0,0,1-.167.84,1.344,1.344,0,0,1-.461.555,2.085,2.085,0,0,1-.641.292,2.953,2.953,0,0,1-.759.092,2.892,2.892,0,0,1-.95-.137,2.068,2.068,0,0,1-.761-.5l.33-.476a1.54,1.54,0,0,0,.59.437,2.106,2.106,0,0,0,.791.133,1.543,1.543,0,0,0,.976-.3,1.1,1.1,0,0,0,.392-.93V7.816a1.916,1.916,0,0,1-.624.547,1.633,1.633,0,0,1-.8.208,1.739,1.739,0,0,1-1.368-.592A2.335,2.335,0,0,1,20.335,6.376Zm.686,0a1.773,1.773,0,0,0,.367,1.16,1.224,1.224,0,0,0,1,.448,1.459,1.459,0,0,0,.729-.2,1.5,1.5,0,0,0,.536-.487V5.436a1.49,1.49,0,0,0-.538-.48,1.475,1.475,0,0,0-.727-.2,1.224,1.224,0,0,0-1,.448A1.786,1.786,0,0,0,21.021,6.376Z" transform="translate(-9.495 -2.563)" fill="#748aa1"/><path d="M10.257,7.633l.437-.562a2.535,2.535,0,0,0,.787.607,2.286,2.286,0,0,0,1.048.238,2.055,2.055,0,0,0,.654-.094,1.081,1.081,0,0,0,.433-.249,1.029,1.029,0,0,0,.223-.324A.909.909,0,0,0,13.91,6.9a.76.76,0,0,0-.118-.422.9.9,0,0,0-.319-.3,2.707,2.707,0,0,0-.461-.2q-.259-.088-.547-.165t-.577-.159a3.4,3.4,0,0,1-.549-.206,2.276,2.276,0,0,1-.461-.289,1.157,1.157,0,0,1-.319-.425,1.421,1.421,0,0,1-.118-.594,1.438,1.438,0,0,1,.572-1.177A2.248,2.248,0,0,1,12.461,2.5a2.722,2.722,0,0,1,2.071.828l-.437.536a2.145,2.145,0,0,0-1.694-.7,1.386,1.386,0,0,0-.864.259A.806.806,0,0,0,11.2,4.1a.6.6,0,0,0,.118.369.878.878,0,0,0,.319.259,3.13,3.13,0,0,0,.461.182q.259.081.549.159t.577.165a3.223,3.223,0,0,1,.547.223,2.291,2.291,0,0,1,.461.313,1.252,1.252,0,0,1,.319.452,1.572,1.572,0,0,1,.118.626,1.66,1.66,0,0,1-.12.63,1.618,1.618,0,0,1-1.04.946,3.083,3.083,0,0,1-1,.148,3.171,3.171,0,0,1-1.293-.251A2.741,2.741,0,0,1,10.257,7.633Zm5.223-1.3a2.357,2.357,0,0,1,.268-1.117,2.064,2.064,0,0,1,.748-.806,2,2,0,0,1,1.076-.3,1.958,1.958,0,0,1,1.093.3,1.92,1.92,0,0,1,.705.817,2.712,2.712,0,0,1,.238,1.156v.167H16.183A1.587,1.587,0,0,0,16.631,7.6a1.427,1.427,0,0,0,1.07.42,1.876,1.876,0,0,0,.718-.142,1.786,1.786,0,0,0,.6-.4l.313.429a2.31,2.31,0,0,1-1.685.66,2.09,2.09,0,0,1-1.561-.622A2.207,2.207,0,0,1,15.48,6.334Zm.695-.27h2.783a1.548,1.548,0,0,0-.088-.485,1.579,1.579,0,0,0-.247-.45,1.188,1.188,0,0,0-.437-.341,1.428,1.428,0,0,0-.622-.131,1.341,1.341,0,0,0-.592.129,1.215,1.215,0,0,0-.431.337,1.731,1.731,0,0,0-.259.45A1.57,1.57,0,0,0,16.174,6.064Zm4.5,4.014V4.22h.656v.63a1.774,1.774,0,0,1,.62-.536,1.707,1.707,0,0,1,.813-.2,1.724,1.724,0,0,1,1.366.6,2.386,2.386,0,0,1,.521,1.623,2.415,2.415,0,0,1-.521,1.625,1.711,1.711,0,0,1-1.366.609,1.653,1.653,0,0,1-.8-.2,1.966,1.966,0,0,1-.637-.553v2.26Zm.656-2.783a1.4,1.4,0,0,0,.532.485,1.494,1.494,0,0,0,.733.2,1.207,1.207,0,0,0,.995-.461,1.832,1.832,0,0,0,.369-1.181,1.814,1.814,0,0,0-.369-1.177,1.212,1.212,0,0,0-.995-.457,1.494,1.494,0,0,0-.733.2,1.412,1.412,0,0,0-.532.48Z" transform="translate(17.531 -2.505)" fill="#748aa1"/><path d="M11.96,7.084a3.3,3.3,0,0,1-.36-1.548,3.28,3.28,0,0,1,.362-1.548A2.7,2.7,0,0,1,12.992,2.9a3.1,3.1,0,0,1,3.034,0,2.712,2.712,0,0,1,1.033,1.087,3.264,3.264,0,0,1,.364,1.548,3.264,3.264,0,0,1-.364,1.548,2.712,2.712,0,0,1-1.033,1.087,3.1,3.1,0,0,1-3.034,0A2.716,2.716,0,0,1,11.96,7.084Zm.4-1.548a2.778,2.778,0,0,0,.259,1.218,2.014,2.014,0,0,0,.753.851,2.236,2.236,0,0,0,2.275,0,2.038,2.038,0,0,0,.759-.851,2.74,2.74,0,0,0,.264-1.218,2.477,2.477,0,0,0-.6-1.709,1.993,1.993,0,0,0-1.565-.671,1.975,1.975,0,0,0-1.561.669A2.5,2.5,0,0,0,12.359,5.536Zm5.922.8a2.4,2.4,0,0,1,.264-1.13,2,2,0,0,1,.748-.8A2.092,2.092,0,0,1,20.4,4.113a1.857,1.857,0,0,1,1.552.738l-.437.394A1.27,1.27,0,0,0,20.433,4.7a1.345,1.345,0,0,0-1.066.459,1.721,1.721,0,0,0-.4,1.175,1.731,1.731,0,0,0,.4,1.179,1.341,1.341,0,0,0,1.063.463,1.292,1.292,0,0,0,1.081-.553l.437.407a1.857,1.857,0,0,1-1.552.738,1.986,1.986,0,0,1-1.527-.639A2.258,2.258,0,0,1,18.281,6.334ZM22.307,4.8V4.22h.7V3.058h.669V4.22h.862V4.8h-.862V7.432a.662.662,0,0,0,.107.4.362.362,0,0,0,.313.148.562.562,0,0,0,.45-.184l.193.5a1.083,1.083,0,0,1-.78.274.924.924,0,0,1-.71-.259,1.037,1.037,0,0,1-.242-.735V4.8Z" transform="translate(42.018 -2.505)" fill="#748aa1"/><path d="M10.479,8.52V2.662h.746L14.6,7.237V2.662h.729V8.52h-.7L11.208,3.846V8.52Zm6.192-1a2.477,2.477,0,0,1-.253-1.123,2.45,2.45,0,0,1,.253-1.119,1.977,1.977,0,0,1,.735-.8,2.213,2.213,0,0,1,2.225,0,1.962,1.962,0,0,1,.733.8,2.467,2.467,0,0,1,.251,1.119,2.494,2.494,0,0,1-.251,1.123,1.97,1.97,0,0,1-.733.808,2.2,2.2,0,0,1-2.225,0A1.985,1.985,0,0,1,16.671,7.516Zm.442-1.123a1.821,1.821,0,0,0,.377,1.164,1.24,1.24,0,0,0,1.029.478A1.274,1.274,0,0,0,19.28,7.8a1.411,1.411,0,0,0,.482-.6,2.025,2.025,0,0,0,.159-.813,2,2,0,0,0-.159-.806,1.413,1.413,0,0,0-.482-.6,1.37,1.37,0,0,0-1.524,0,1.405,1.405,0,0,0-.485.6A2,2,0,0,0,17.113,6.393Zm3.941-2.114h.72L23.18,7.756l1.411-3.478H25.3L23.54,8.52h-.72Z" transform="translate(68.585 -2.563)" fill="#748aa1"/><path d="M10.554,8.52V2.662h2a3.173,3.173,0,0,1,1.582.388A2.66,2.66,0,0,1,15.194,4.1,3.052,3.052,0,0,1,15.558,5.6a3.105,3.105,0,0,1-.214,1.16A2.66,2.66,0,0,1,13.794,8.3a3.335,3.335,0,0,1-1.237.223Zm.729-.652h1.274a2.32,2.32,0,0,0,1.209-.309,1.993,1.993,0,0,0,.778-.819A2.49,2.49,0,0,0,14.8,5.6a2.544,2.544,0,0,0-.255-1.153,1.968,1.968,0,0,0-.772-.819,2.334,2.334,0,0,0-1.22-.309H11.283Zm5.141-1.475a2.357,2.357,0,0,1,.268-1.117,2.064,2.064,0,0,1,.748-.806,2,2,0,0,1,1.076-.3,1.958,1.958,0,0,1,1.093.3,1.92,1.92,0,0,1,.705.817,2.712,2.712,0,0,1,.238,1.156v.167H17.128a1.587,1.587,0,0,0,.448,1.046,1.427,1.427,0,0,0,1.07.42,1.876,1.876,0,0,0,.718-.142,1.786,1.786,0,0,0,.6-.4l.313.429a2.31,2.31,0,0,1-1.685.66A2.09,2.09,0,0,1,17.033,8,2.207,2.207,0,0,1,16.425,6.393Zm.695-.27H19.9a1.548,1.548,0,0,0-.088-.485,1.579,1.579,0,0,0-.247-.45,1.188,1.188,0,0,0-.437-.341,1.428,1.428,0,0,0-.622-.131,1.341,1.341,0,0,0-.592.129,1.215,1.215,0,0,0-.431.337,1.731,1.731,0,0,0-.259.45A1.569,1.569,0,0,0,17.119,6.123Zm4.249.27a2.4,2.4,0,0,1,.264-1.13,2,2,0,0,1,.748-.8,2.092,2.092,0,0,1,1.106-.294,1.857,1.857,0,0,1,1.552.738L24.6,5.3a1.27,1.27,0,0,0-1.081-.545,1.345,1.345,0,0,0-1.066.459,1.721,1.721,0,0,0-.4,1.175,1.731,1.731,0,0,0,.4,1.179,1.341,1.341,0,0,0,1.063.463A1.292,1.292,0,0,0,24.6,7.482l.437.407a1.857,1.857,0,0,1-1.552.738,1.986,1.986,0,0,1-1.527-.639A2.258,2.258,0,0,1,21.369,6.393Z" transform="translate(94.705 -2.563)" fill="#748aa1"/></g><g transform="translate(0 0.024)"><rect width="150.872" height="0.31" fill="#192f4b"/><rect width="150.872" height="0.31" transform="translate(0 15.827)" fill="#192f4b"/><rect width="150.872" height="0.31" transform="translate(0 31.654)" fill="#192f4b"/><rect width="150.872" height="0.31" transform="translate(0 47.482)" fill="#192f4b"/><rect width="150.872" height="0.31" transform="translate(0 63.309)" fill="#192f4b"/></g><g transform="translate(58.779 0.024)"><path d="M19.6,21.564l-1.372-1.695H5a5,5,0,0,1-5-5V5A5,5,0,0,1,5,0H34.738a5,5,0,0,1,5,5v9.869a5,5,0,0,1-5,5H21.287l-1.371,1.695a.193.193,0,0,1-.312,0Z" transform="translate(0 0)" fill="#4274ee"/><g transform="translate(5.203 6.454)"><path d="M-20.3-4.08l.4-.422a1.764,1.764,0,0,0,.647.522,1.958,1.958,0,0,0,.87.2,1.44,1.44,0,0,0,.93-.275.906.906,0,0,0,.34-.745.808.808,0,0,0-.362-.727,1.8,1.8,0,0,0-.991-.237q-.482,0-.561.008v-.617q.092.008.561.008a1.678,1.678,0,0,0,.91-.225.742.742,0,0,0,.356-.671.793.793,0,0,0-.348-.685,1.467,1.467,0,0,0-.87-.247,1.805,1.805,0,0,0-.782.163,2.127,2.127,0,0,0-.651.5l-.374-.426a2.241,2.241,0,0,1,.784-.609A2.478,2.478,0,0,1-18.36-8.8a2.142,2.142,0,0,1,1.32.386,1.247,1.247,0,0,1,.516,1.055,1.21,1.21,0,0,1-.109.518,1.1,1.1,0,0,1-.287.384,1.639,1.639,0,0,1-.372.239,1.513,1.513,0,0,1-.4.121,1.384,1.384,0,0,1,.4.109,1.732,1.732,0,0,1,.4.247,1.186,1.186,0,0,1,.321.418,1.3,1.3,0,0,1,.125.571A1.408,1.408,0,0,1-16.96-3.62a2.117,2.117,0,0,1-1.408.44,2.554,2.554,0,0,1-1.161-.253A2,2,0,0,1-20.3-4.08Zm4.842.024.418-.454a1.792,1.792,0,0,0,1.5.725,1.268,1.268,0,0,0,.9-.332,1.1,1.1,0,0,0,.354-.834,1.1,1.1,0,0,0-.348-.854,1.28,1.28,0,0,0-.9-.321,1.755,1.755,0,0,0-1.254.506l-.5-.171V-8.718h3.329v.605h-2.652v1.891a1.7,1.7,0,0,1,.553-.352,1.878,1.878,0,0,1,.721-.137,1.87,1.87,0,0,1,.657.115,1.739,1.739,0,0,1,.551.328,1.512,1.512,0,0,1,.384.547,1.872,1.872,0,0,1,.143.745,1.661,1.661,0,0,1-.553,1.3,2.01,2.01,0,0,1-1.39.494A2.253,2.253,0,0,1-15.461-4.056Zm4.738,1.561a1.291,1.291,0,0,0,.354-.346.919.919,0,0,0,.175-.414.287.287,0,0,1-.115.016.367.367,0,0,1-.277-.119.411.411,0,0,1-.113-.295.435.435,0,0,1,.125-.311.405.405,0,0,1,.3-.131.466.466,0,0,1,.366.169.664.664,0,0,1,.147.452,1.4,1.4,0,0,1-.183.691,1.648,1.648,0,0,1-.474.54Zm1.573-3.5a4.444,4.444,0,0,1,.072-.8,3.393,3.393,0,0,1,.233-.757,2.506,2.506,0,0,1,.4-.639,1.751,1.751,0,0,1,.591-.438A1.843,1.843,0,0,1-7.068-8.8a1.833,1.833,0,0,1,.784.165,1.751,1.751,0,0,1,.591.438,2.506,2.506,0,0,1,.4.639,3.388,3.388,0,0,1,.233.759,4.454,4.454,0,0,1,.072.8,4.454,4.454,0,0,1-.072.8,3.425,3.425,0,0,1-.233.761,2.531,2.531,0,0,1-.4.643,1.761,1.761,0,0,1-.591.442,1.815,1.815,0,0,1-.784.167,1.824,1.824,0,0,1-.788-.167,1.761,1.761,0,0,1-.591-.442,2.52,2.52,0,0,1-.4-.645,3.469,3.469,0,0,1-.233-.761A4.421,4.421,0,0,1-9.15-5.995Zm.7,0a4.2,4.2,0,0,0,.074.806,2.912,2.912,0,0,0,.229.7,1.267,1.267,0,0,0,.434.514,1.128,1.128,0,0,0,.649.189,1.128,1.128,0,0,0,.649-.189,1.267,1.267,0,0,0,.434-.514,2.912,2.912,0,0,0,.229-.7,4.2,4.2,0,0,0,.074-.806,4.561,4.561,0,0,0-.044-.645,3.027,3.027,0,0,0-.147-.6,1.946,1.946,0,0,0-.259-.5,1.134,1.134,0,0,0-.4-.336,1.151,1.151,0,0,0-.54-.125,1.151,1.151,0,0,0-.54.125,1.134,1.134,0,0,0-.4.336,1.946,1.946,0,0,0-.259.5,3.027,3.027,0,0,0-.147.6A4.561,4.561,0,0,0-8.453-5.995Zm4.292,0a4.444,4.444,0,0,1,.072-.8,3.393,3.393,0,0,1,.233-.757,2.506,2.506,0,0,1,.4-.639,1.751,1.751,0,0,1,.591-.438A1.843,1.843,0,0,1-2.079-8.8a1.833,1.833,0,0,1,.784.165A1.751,1.751,0,0,1-.7-8.195a2.506,2.506,0,0,1,.4.639A3.388,3.388,0,0,1-.072-6.8a4.454,4.454,0,0,1,.072.8,4.454,4.454,0,0,1-.072.8A3.425,3.425,0,0,1-.3-4.432a2.531,2.531,0,0,1-.4.643,1.761,1.761,0,0,1-.591.442,1.815,1.815,0,0,1-.784.167,1.824,1.824,0,0,1-.788-.167,1.761,1.761,0,0,1-.591-.442,2.52,2.52,0,0,1-.4-.645,3.469,3.469,0,0,1-.233-.761A4.421,4.421,0,0,1-4.161-5.995Zm.7,0a4.2,4.2,0,0,0,.074.806,2.912,2.912,0,0,0,.229.7,1.267,1.267,0,0,0,.434.514,1.128,1.128,0,0,0,.649.189,1.128,1.128,0,0,0,.649-.189A1.267,1.267,0,0,0-1-4.488a2.912,2.912,0,0,0,.229-.7,4.2,4.2,0,0,0,.074-.806A4.561,4.561,0,0,0-.737-6.64a3.027,3.027,0,0,0-.147-.6,1.946,1.946,0,0,0-.259-.5,1.134,1.134,0,0,0-.4-.336,1.151,1.151,0,0,0-.54-.125,1.151,1.151,0,0,0-.54.125,1.134,1.134,0,0,0-.4.336,1.946,1.946,0,0,0-.259.5,3.027,3.027,0,0,0-.147.6A4.561,4.561,0,0,0-3.464-5.995Zm4.292,0A4.444,4.444,0,0,1,.9-6.8a3.393,3.393,0,0,1,.233-.757,2.506,2.506,0,0,1,.4-.639,1.751,1.751,0,0,1,.591-.438A1.843,1.843,0,0,1,2.91-8.8a1.833,1.833,0,0,1,.784.165,1.751,1.751,0,0,1,.591.438,2.506,2.506,0,0,1,.4.639,3.388,3.388,0,0,1,.233.759,4.454,4.454,0,0,1,.072.8,4.454,4.454,0,0,1-.072.8,3.425,3.425,0,0,1-.233.761,2.531,2.531,0,0,1-.4.643,1.761,1.761,0,0,1-.591.442,1.815,1.815,0,0,1-.784.167,1.824,1.824,0,0,1-.788-.167,1.761,1.761,0,0,1-.591-.442,2.52,2.52,0,0,1-.4-.645A3.469,3.469,0,0,1,.9-5.194,4.421,4.421,0,0,1,.828-5.995Zm.7,0a4.2,4.2,0,0,0,.074.806,2.912,2.912,0,0,0,.229.7,1.267,1.267,0,0,0,.434.514,1.128,1.128,0,0,0,.649.189,1.128,1.128,0,0,0,.649-.189,1.267,1.267,0,0,0,.434-.514,2.912,2.912,0,0,0,.229-.7A4.2,4.2,0,0,0,4.3-5.995a4.561,4.561,0,0,0-.044-.645,3.027,3.027,0,0,0-.147-.6,1.946,1.946,0,0,0-.259-.5,1.134,1.134,0,0,0-.4-.336A1.151,1.151,0,0,0,2.91-8.2a1.151,1.151,0,0,0-.54.125,1.134,1.134,0,0,0-.4.336,1.946,1.946,0,0,0-.259.5,3.027,3.027,0,0,0-.147.6A4.561,4.561,0,0,0,1.525-5.995Z" transform="translate(26.05 8.798)" fill="#fff"/><path d="M2.982-27.825,2.87-27.5h2.1a.969.969,0,0,1-.408.673,2.076,2.076,0,0,1-1.233.32h-.4v.36a.991.991,0,0,1,.568.16,1.914,1.914,0,0,1,.44.464l1.449,1.962h.665L4.423-25.7a2.589,2.589,0,0,0-.472-.512,2.137,2.137,0,0,0,1.073-.44,1.253,1.253,0,0,0,.432-.849h.953l.12-.328H5.456a1.419,1.419,0,0,0-.641-1.121H6.449l.112-.328H3.006l-.1.328h.665A1.478,1.478,0,0,1,4.6-28.6a1.189,1.189,0,0,1,.368.777Z" transform="translate(-2.87 29.621)" fill="#fff"/></g></g><g transform="translate(23.586 0)"><path d="M1866.492,248.044s-10.377,12.6-16.642,12.6-4.108,4.671-13.23,4.671-9.936-2.055-13.573-2.055-9.973,11.679-13.609,11.679-10.967-9.624-14.82-9.624-7.32,16.452-13.3,16.452-9.489-6.828-13.759-6.828-8.419,6.486-13.837,6.828S1739,276.74,1739,276.74" transform="translate(-1738.999 -237.614)" fill="none" stroke="#3f464e" stroke-linecap="round" stroke-linejoin="round" stroke-width="2"/><g transform="matrix(1, 0, 0, 1, -164.94, -43.78)" filter="url(#g)"><path d="M1865.322,217.2s-9.261,14.3-15.523,14.3-4.106,11.108-13.224,11.108-9.931,12.651-13.567,12.651-8.231-14-14.7-14-9.86,10.337-13.711,10.337-7.317-10.337-13.295-10.337-9.485,25.675-13.752,25.675-8.415-12.021-13.83-11.679S1739,268.744,1739,268.744" transform="translate(-1574.06 -173.43)" fill="none" stroke="#4072ee" stroke-linecap="round" stroke-linejoin="round" stroke-width="2"/></g></g><g transform="translate(72.606 20.222)"><g transform="translate(-2166.896 -257.897)" fill="#fff"><path d="M 2173.102783203125 265.2066650390625 C 2172.494384765625 265.2066650390625 2171.99951171875 264.7117004394531 2171.99951171875 264.1033020019531 C 2171.99951171875 263.494873046875 2172.494384765625 262.9998779296875 2173.102783203125 262.9998779296875 C 2173.711181640625 262.9998779296875 2174.206298828125 263.494873046875 2174.206298828125 264.1033020019531 C 2174.206298828125 264.7117004394531 2173.711181640625 265.2066650390625 2173.102783203125 265.2066650390625 Z" stroke="none"/><path d="M 2173.102783203125 260.9998779296875 C 2174.8193359375 260.9998779296875 2176.206298828125 262.3870849609375 2176.206298828125 264.103271484375 C 2176.206298828125 265.8194580078125 2174.8193359375 267.2066650390625 2173.102783203125 267.2066650390625 C 2171.386962890625 267.2066650390625 2169.99951171875 265.8194580078125 2169.99951171875 264.103271484375 C 2169.99951171875 262.3870849609375 2171.386962890625 260.9998779296875 2173.102783203125 260.9998779296875 Z" stroke="none" fill="#4072ee"/></g><g transform="translate(-2160 -251)" opacity="0.102" fill="url(#i)"><path d="M 2166.206298828125 262.9133911132812 C 2163.0595703125 262.9133911132812 2160.49951171875 260.3533630371094 2160.49951171875 257.2066650390625 C 2160.49951171875 254.0599365234375 2163.0595703125 251.4998779296875 2166.206298828125 251.4998779296875 C 2167.73291015625 251.4998779296875 2169.166748046875 252.0928955078125 2170.243408203125 253.1697082519531 C 2171.3203125 254.2464904785156 2171.913330078125 255.68017578125 2171.913330078125 257.2066650390625 C 2171.913330078125 258.7331237792969 2171.3203125 260.1668090820312 2170.243408203125 261.2435607910156 C 2169.166748046875 262.3203735351562 2167.73291015625 262.9133911132812 2166.206298828125 262.9133911132812 Z" stroke="none"/><path d="M 2166.206298828125 251.9998779296875 C 2163.335205078125 251.9998779296875 2160.99951171875 254.3356323242188 2160.99951171875 257.2066650390625 C 2160.99951171875 260.0776672363281 2163.335205078125 262.4133911132812 2166.206298828125 262.4133911132812 C 2169.077392578125 262.4133911132812 2171.413330078125 260.0776672363281 2171.413330078125 257.2066650390625 C 2171.413330078125 254.3356323242188 2169.077392578125 251.9998779296875 2166.206298828125 251.9998779296875 M 2166.206298828125 250.9998779296875 C 2169.638916015625 250.9998779296875 2172.413330078125 253.7743225097656 2172.413330078125 257.2066650390625 C 2172.413330078125 260.6389465332031 2169.638916015625 263.4133911132812 2166.206298828125 263.4133911132812 C 2162.774169921875 263.4133911132812 2159.99951171875 260.6389465332031 2159.99951171875 257.2066650390625 C 2159.99951171875 253.7743225097656 2162.774169921875 250.9998779296875 2166.206298828125 250.9998779296875 Z" stroke="none" fill="#4072ee"/></g></g></g><path d="M.781-2.486V-6.67H2.463a1.332,1.332,0,0,1,.949.345,1.2,1.2,0,0,1,.368.917,1.337,1.337,0,0,1-.09.5,1.062,1.062,0,0,1-.243.375A1.2,1.2,0,0,1,3.1-4.3a1.257,1.257,0,0,1-.412.106l1.13,1.706H3.2L2.141-4.149H1.3v1.663ZM1.3-4.606H2.4A.846.846,0,0,0,3-4.829a.762.762,0,0,0,.236-.579.754.754,0,0,0-.234-.576A.851.851,0,0,0,2.4-6.2H1.3Zm2.916.6a1.684,1.684,0,0,1,.191-.8,1.474,1.474,0,0,1,.534-.576,1.428,1.428,0,0,1,.769-.213,1.4,1.4,0,0,1,.781.217,1.372,1.372,0,0,1,.5.583,1.937,1.937,0,0,1,.17.825v.119H4.72a1.134,1.134,0,0,0,.32.747,1.019,1.019,0,0,0,.764.3,1.34,1.34,0,0,0,.513-.1,1.275,1.275,0,0,0,.43-.288l.224.306a1.65,1.65,0,0,1-1.2.472,1.493,1.493,0,0,1-1.115-.444A1.576,1.576,0,0,1,4.218-4.005Zm.5-.193H6.7a1.106,1.106,0,0,0-.063-.346,1.128,1.128,0,0,0-.176-.322.848.848,0,0,0-.312-.243A1.02,1.02,0,0,0,5.706-5.2a.958.958,0,0,0-.423.092.868.868,0,0,0-.308.24,1.237,1.237,0,0,0-.185.322A1.121,1.121,0,0,0,4.714-4.2ZM7.927-2.486V-5.515H8.4v.438a1.508,1.508,0,0,1,.472-.363,1.326,1.326,0,0,1,.616-.152.857.857,0,0,1,.959.98v2.126H9.976V-4.468A.706.706,0,0,0,9.8-5.011a.727.727,0,0,0-.505-.161,1.015,1.015,0,0,0-.507.138A1.246,1.246,0,0,0,8.4-4.7v2.214ZM10.977-5.1v-.413h.5v-.83h.478v.83h.616V-5.1h-.616v1.881a.473.473,0,0,0,.077.283.259.259,0,0,0,.224.106.4.4,0,0,0,.322-.132l.138.358a.774.774,0,0,1-.557.2.66.66,0,0,1-.507-.185.741.741,0,0,1-.173-.525V-5.1Zm3.9,2.616V-6.67H16.3a2.267,2.267,0,0,1,1.13.277,1.9,1.9,0,0,1,.753.752,2.18,2.18,0,0,1,.26,1.066,2.218,2.218,0,0,1-.153.829,1.965,1.965,0,0,1-.429.663,1.946,1.946,0,0,1-.678.438,2.382,2.382,0,0,1-.884.159Zm.521-.466h.91a1.657,1.657,0,0,0,.864-.221,1.424,1.424,0,0,0,.556-.585,1.778,1.778,0,0,0,.185-.818,1.817,1.817,0,0,0-.182-.824,1.406,1.406,0,0,0-.551-.585A1.667,1.667,0,0,0,16.3-6.2h-.91Zm3.859-3.087a.3.3,0,0,1-.092-.224.307.307,0,0,1,.093-.225.307.307,0,0,1,.225-.093.3.3,0,0,1,.224.093.309.309,0,0,1,.092.225.3.3,0,0,1-.092.224.3.3,0,0,1-.224.092A.315.315,0,0,1,19.253-6.039Zm-.009,3.553V-5.515h.469v3.029Zm1.152-.4.236-.34a1.3,1.3,0,0,0,.432.309,1.326,1.326,0,0,0,.567.126.867.867,0,0,0,.531-.144.45.45,0,0,0,.191-.377.332.332,0,0,0-.1-.248.7.7,0,0,0-.27-.156q-.165-.055-.364-.1t-.4-.107a2.016,2.016,0,0,1-.366-.15.718.718,0,0,1-.27-.253.713.713,0,0,1-.1-.391.778.778,0,0,1,.3-.623,1.25,1.25,0,0,1,.824-.25,1.493,1.493,0,0,1,1.121.441l-.217.325a1.01,1.01,0,0,0-.378-.277,1.277,1.277,0,0,0-.525-.106.8.8,0,0,0-.487.136.411.411,0,0,0-.184.342.283.283,0,0,0,.1.222.733.733,0,0,0,.268.141q.164.051.364.095t.4.109a1.913,1.913,0,0,1,.364.158.733.733,0,0,1,.268.268.792.792,0,0,1,.1.413.818.818,0,0,1-.311.657,1.329,1.329,0,0,1-.874.259A1.617,1.617,0,0,1,20.4-2.887ZM23.158-5.1v-.413h.5v-.83h.478v.83h.616V-5.1h-.616v1.881a.473.473,0,0,0,.077.283.259.259,0,0,0,.224.106.4.4,0,0,0,.322-.132l.138.358a.774.774,0,0,1-.557.2.66.66,0,0,1-.507-.185.741.741,0,0,1-.173-.525V-5.1Zm2.263-.937a.3.3,0,0,1-.092-.224.307.307,0,0,1,.093-.225.307.307,0,0,1,.225-.093.3.3,0,0,1,.224.093.309.309,0,0,1,.092.225.3.3,0,0,1-.092.224.3.3,0,0,1-.224.092A.315.315,0,0,1,25.422-6.039Zm-.009,3.553V-5.515h.469v3.029Zm1.409,0V-6.67h.469v1.611a1.309,1.309,0,0,1,.452-.392,1.21,1.21,0,0,1,.571-.141,1.223,1.223,0,0,1,.974.435A1.715,1.715,0,0,1,29.661-4a1.707,1.707,0,0,1-.374,1.159,1.229,1.229,0,0,1-.974.43,1.2,1.2,0,0,1-.577-.144,1.335,1.335,0,0,1-.446-.383v.45Zm.469-.821a.975.975,0,0,0,.38.338,1.107,1.107,0,0,0,.53.136.866.866,0,0,0,.711-.326A1.3,1.3,0,0,0,29.174-4a1.309,1.309,0,0,0-.263-.844.862.862,0,0,0-.711-.329,1.072,1.072,0,0,0-.528.142,1.007,1.007,0,0,0-.381.348Zm3.136-.07V-5.515H30.9v1.994a.687.687,0,0,0,.175.534.744.744,0,0,0,.508.155,1.06,1.06,0,0,0,.508-.132,1.1,1.1,0,0,0,.383-.325V-5.515h.472v3.029H32.47v-.426a1.573,1.573,0,0,1-.475.358,1.32,1.32,0,0,1-.6.144A.854.854,0,0,1,30.427-3.377ZM33.471-5.1v-.413h.5v-.83h.478v.83h.616V-5.1h-.616v1.881a.473.473,0,0,0,.077.283.259.259,0,0,0,.224.106.4.4,0,0,0,.322-.132l.138.358a.774.774,0,0,1-.557.2.66.66,0,0,1-.507-.185.741.741,0,0,1-.173-.525V-5.1Zm2.077,1.1a1.684,1.684,0,0,1,.191-.8,1.474,1.474,0,0,1,.534-.576,1.428,1.428,0,0,1,.769-.213,1.4,1.4,0,0,1,.781.217,1.372,1.372,0,0,1,.5.583,1.937,1.937,0,0,1,.17.825v.119H36.05a1.134,1.134,0,0,0,.32.747,1.019,1.019,0,0,0,.764.3,1.34,1.34,0,0,0,.513-.1,1.275,1.275,0,0,0,.43-.288l.224.306a1.65,1.65,0,0,1-1.2.472,1.493,1.493,0,0,1-1.115-.444A1.576,1.576,0,0,1,35.548-4.005Zm.5-.193h1.988a1.106,1.106,0,0,0-.063-.346,1.128,1.128,0,0,0-.176-.322.848.848,0,0,0-.312-.243,1.02,1.02,0,0,0-.444-.093.958.958,0,0,0-.423.092.868.868,0,0,0-.308.24,1.237,1.237,0,0,0-.185.322A1.121,1.121,0,0,0,36.044-4.2Zm3.035.2a1.708,1.708,0,0,1,.377-1.156,1.227,1.227,0,0,1,.974-.436A1.192,1.192,0,0,1,41-5.451a1.347,1.347,0,0,1,.452.392V-6.67h.472v4.184H41.45v-.45a1.34,1.34,0,0,1-.444.383,1.193,1.193,0,0,1-.576.144,1.233,1.233,0,0,1-.976-.43A1.7,1.7,0,0,1,39.079-4Zm.753-.842A1.3,1.3,0,0,0,39.569-4a1.3,1.3,0,0,0,.262.841.868.868,0,0,0,.715.326,1.073,1.073,0,0,0,.525-.139,1,1,0,0,0,.378-.342V-4.682a1.009,1.009,0,0,0-.38-.348,1.059,1.059,0,0,0-.524-.142A.864.864,0,0,0,39.833-4.841Z" transform="translate(7.819 15.659)" fill="#fff"/></g></g><g fill="none" stroke="#707070" stroke-width="1" opacity="0"><rect width="300" height="250" stroke="none"/><rect x="0.5" y="0.5" width="299" height="249" fill="none"/></g></g></svg>