<svg xmlns="http://www.w3.org/2000/svg" width="300" height="250" viewBox="0 0 300 250">
  <g id="Group_3496" data-name="Group 3496" transform="translate(0 0.003)">
    <g id="Rectangle_929" data-name="Rectangle 929" transform="translate(0 -0.003)" fill="none" stroke="#707070" stroke-width="1" opacity="0">
      <rect width="300" height="250" stroke="none"/>
      <rect x="0.5" y="0.5" width="299" height="249" fill="none"/>
    </g>
    <g id="small-talk" transform="translate(83 34.997)">
      <path id="Path_7389" data-name="Path 7389" d="M91.442,279.22a22.155,22.155,0,1,0-22.154,22.155A22.179,22.179,0,0,0,91.442,279.22Zm0,0" transform="translate(-30.885 -168.707)" fill="#4a77c3" fill-rule="evenodd"/>
      <path id="Path_7390" data-name="Path 7390" d="M38.4,385.6A38.4,38.4,0,0,0,0,424a5.17,5.17,0,0,0,5.171,5.171H71.634A5.17,5.17,0,0,0,76.8,424,38.4,38.4,0,0,0,38.4,385.6Zm0,0" transform="translate(0 -252.933)" fill="#4a77c3" fill-rule="evenodd"/>
      <path id="Path_7391" data-name="Path 7391" d="M326.354,257.066a22.155,22.155,0,1,0,22.154,22.154A22.18,22.18,0,0,0,326.354,257.066Zm0,0" transform="translate(-231.265 -168.707)" fill="#192f4b" fill-rule="evenodd"/>
      <path id="Path_7392" data-name="Path 7392" d="M295.469,385.6a38.4,38.4,0,0,0-38.4,38.4,5.171,5.171,0,0,0,5.171,5.171H328.7A5.17,5.17,0,0,0,333.871,424,38.4,38.4,0,0,0,295.469,385.6Zm0,0" transform="translate(-200.38 -252.933)" fill="#192f4b" fill-rule="evenodd"/>
      <path id="Path_7393" data-name="Path 7393" d="M146.6,60.3a12.771,12.771,0,0,0,12.756-12.756V12.756A12.752,12.752,0,0,0,146.6,0H77.023A12.752,12.752,0,0,0,64.266,12.756V47.544A12.771,12.771,0,0,0,77.023,60.3H97.382l10.8,21.594a4.059,4.059,0,0,0,7.262,0l10.8-21.594Z" transform="translate(-38.721 4)" fill="#192f4b" fill-rule="evenodd"/>
      <path id="Path_7394" data-name="Path 7394" d="M5.038-6.588A12.312,12.312,0,0,0,5.19-4.605,5.6,5.6,0,0,0,5.68-3a2.9,2.9,0,0,0,.887,1.076,2.224,2.224,0,0,0,1.341.4,2.31,2.31,0,0,0,1.359-.4A2.825,2.825,0,0,0,10.174-3a6.013,6.013,0,0,0,.51-1.6,10.974,10.974,0,0,0,.17-1.982,12.806,12.806,0,0,0-.132-1.85,5.694,5.694,0,0,0-.472-1.624,3.082,3.082,0,0,0-.906-1.152,2.29,2.29,0,0,0-1.435-.434,2.29,2.29,0,0,0-1.435.434,2.922,2.922,0,0,0-.887,1.152,5.686,5.686,0,0,0-.434,1.624A14.905,14.905,0,0,0,5.038-6.588ZM7.946.927a6.442,6.442,0,0,1-2.908-.6A5.406,5.406,0,0,1,3.075-1.3,6.663,6.663,0,0,1,1.98-3.68a11.957,11.957,0,0,1-.34-2.908A11.424,11.424,0,0,1,2-9.477a6.711,6.711,0,0,1,1.133-2.4A5.623,5.623,0,0,1,5.1-13.5a6.23,6.23,0,0,1,2.851-.6,6.23,6.23,0,0,1,2.851.6,5.623,5.623,0,0,1,1.964,1.624,6.711,6.711,0,0,1,1.133,2.4,11.424,11.424,0,0,1,.359,2.889,11.957,11.957,0,0,1-.34,2.908,6.663,6.663,0,0,1-1.1,2.379A5.406,5.406,0,0,1,10.854.322,6.442,6.442,0,0,1,7.946.927ZM23.995,5.873a12.312,12.312,0,0,0,.151,1.982,5.6,5.6,0,0,0,.491,1.6,2.9,2.9,0,0,0,.887,1.076,2.224,2.224,0,0,0,1.341.4,2.31,2.31,0,0,0,1.359-.4,2.825,2.825,0,0,0,.906-1.076,6.013,6.013,0,0,0,.51-1.6,10.975,10.975,0,0,0,.17-1.982,12.806,12.806,0,0,0-.132-1.85A5.694,5.694,0,0,0,29.206,2.4,3.082,3.082,0,0,0,28.3,1.247a2.588,2.588,0,0,0-2.87,0A2.922,2.922,0,0,0,24.542,2.4a5.686,5.686,0,0,0-.434,1.624A14.905,14.905,0,0,0,23.995,5.873ZM26.9,13.388a6.442,6.442,0,0,1-2.908-.6,5.406,5.406,0,0,1-1.964-1.624,6.663,6.663,0,0,1-1.1-2.379,11.957,11.957,0,0,1-.34-2.908,11.424,11.424,0,0,1,.359-2.889,6.711,6.711,0,0,1,1.133-2.4,5.623,5.623,0,0,1,1.964-1.624,6.23,6.23,0,0,1,2.851-.6,6.23,6.23,0,0,1,2.851.6A5.623,5.623,0,0,1,31.717.587a6.711,6.711,0,0,1,1.133,2.4,11.424,11.424,0,0,1,.359,2.889,11.957,11.957,0,0,1-.34,2.908,6.663,6.663,0,0,1-1.1,2.379,5.406,5.406,0,0,1-1.964,1.624A6.442,6.442,0,0,1,26.9,13.388ZM23.051-14.48h2.87L11.307,13.765H8.361Z" transform="translate(55.836 35.51)" fill="#4274ee"/>
    </g>
  </g>
</svg>
