<svg xmlns="http://www.w3.org/2000/svg" width="25.733" height="23.394" viewBox="0 0 25.733 23.394"><defs><style>.a{fill:#4a77c2;}</style></defs><g transform="translate(0 0)"><g transform="translate(0 0)"><path class="a" d="M0,48.894H4.679V34.857H0ZM25.733,36.027a2.346,2.346,0,0,0-2.339-2.339H16.025l1.17-5.381v-.351a2.453,2.453,0,0,0-.468-1.287L15.44,25.5,7.72,33.22a1.963,1.963,0,0,0-.7,1.638v11.7a2.346,2.346,0,0,0,2.339,2.339H19.885a2.311,2.311,0,0,0,2.105-1.4l3.509-8.3a1.991,1.991,0,0,0,.117-.819V36.027h.117Z" transform="translate(0 -25.5)"/></g></g></svg>