<svg xmlns="http://www.w3.org/2000/svg" xmlns:xlink="http://www.w3.org/1999/xlink" width="300" height="250" viewBox="0 0 300 250"><defs><radialGradient id="a" cx="0.487" cy="0.5" r="0.587" gradientTransform="translate(0.072 0.074) scale(0.851 0.851)" gradientUnits="objectBoundingBox"><stop offset="0" stop-color="#192f4b"/><stop offset="0.635" stop-color="#192f4b"/><stop offset="1" stop-color="#192f4b" stop-opacity="0"/></radialGradient><filter id="b" x="114.986" y="57.803" width="73.929" height="108.129" filterUnits="userSpaceOnUse"><feOffset dy="3" input="SourceAlpha"/><feGaussianBlur stdDeviation="3" result="c"/><feFlood flood-color="#00d199"/><feComposite operator="in" in2="c"/><feComposite in="SourceGraphic"/></filter><filter id="d" x="78.982" y="88.512" width="56.237" height="29.228" filterUnits="userSpaceOnUse"><feOffset dy="3" input="SourceAlpha"/><feGaussianBlur stdDeviation="3" result="e"/><feFlood flood-color="#00d199"/><feComposite operator="in" in2="e"/><feComposite in="SourceGraphic"/></filter></defs><g transform="translate(36 28)"><g transform="translate(0)"><g transform="translate(0)"><path d="M226.812,194.433l1.561-6.5v6.5Zm-17.285,0L212.39,174.5l-25.181-4.853-4.387,24.785H156.659l-6.627-1.343-.432,1.343h-8.532l2.737-8.577-4.35-10.76-19.413,6.044,3.364,13.294h-8.384l-5.923-23.5-9.2,3.525,5.557,19.978h-2.5l-.539-1.939-4.66,1.939H91.367l10.362-4.32-4.121-14.789-21.152,8.1,6.262,11h-2.8l-5.755-10.088-21.473,8.2,3.93,1.893H38L29.435,190.3l-.993,4.137H25.949l1.243-5.189-11.126-5.357L13,194.433H7.911l3.713-12.7L0,176.128v-8.955l3.246,1.558,10.53-37.086-9.935-5.585L0,137.863V130l1.552-4.768L0,124.976v-2.451l2.331.376,7.1-21.793L0,97.267V94.617l10.159,4.156L22.888,59.765,0,61.944v-4.93l34.38-3.247L9.931,25.7c-1.708.163-6.558.65-9.931.949V24.265l9.153-.9L8.237,9.676,0,10.727v-8.2l7.321-.91L7.064,0H9.543l.2,1.3L20.421,0H87.208L74.762,1.526l9.156,36.4,23.3-4.533L97.139,0H102.2l6.44,21.4L124.406,0h7.918c1.193,4.1,2.756,9.1,4.567,14.163l18.5-7.143L157.371,0h2.468l-2.116,7.479,8.561,7.279L183.489,0h7.46l-1.725,1.48,11.721,6L203.364,0h9.647q-.578.142-1.17.245l-6.822,21.29,23.355,4.684v2.5l-10.626-2.146c-.275,1.74-.824,5.082-1.419,8.7l12.046,1.592v2.459l-12.412-1.671c-.55,3.434-1.1,6.822-1.465,9.019l13.877,2.621v4.951L213.58,51.477l-5.585,25.548,20.378-19.041v3.378L207.628,80.688l8.379,10.256L228.373,83.6v5.635l-9.253,5.506,7.051,8.562,2.2-1.3v2.862l-.691.409.691.845v3.825L217.014,96.026l-24.449,14.513,35.808,6.437v8.267l-9.253-1.655-4.578,27.241,13.832,3.292v2.5l-14.243-3.414-2.7,16.162c5.958,1.124,11.732,2.249,16.945,3.247v4.95l-11.222-2.154-2.731,19.017Zm-57.985-6.014,26.463,5.357,4.441-25.044L159.28,164.29Zm-116.2-4.258,11.308,5.448,23.625-9.019L42.85,161.772Zm97.017-33.148L145,182.238l14.422-45.006ZM7.733,170.883l23.213,11.172,7.6-22.755L14.189,148.129Zm52.789-20.6-2.884,18.68,15.384,10.576,9.34-3.571,7.371-37.589c-6.547-2.289-14.147-4.944-20.786-7.279Zm49.905-7.371,9.065,35.895,19.092-5.952L124.8,138.834Zm-25.364,32,22.892-8.744L102,142.635c-2.473-.87-5.952-2.107-9.935-3.48Zm105.4-9.615c6.044,1.145,12.362,2.381,18.542,3.571l7.692-45.738-3.937-.733ZM43.674,159.392l11.767,8.058,2.518-16.436-11.079-1.328Zm117.117.229c5.448,1.053,15.613,2.976,27.2,5.219l1.694-3.25-22.892-20.741ZM179.974,149.5l10.805,9.844,19.413-37.36-12.362-2.244ZM14.83,145.748l24.495,11.217,2.793-8.379L17.028,138.1Zm112.08-8.2,4.533,11.217,28.524-14.513-25.594-6.547ZM47.749,147.4l10.9,1.282,8.012-18.359c-5.082-1.786-9.386-3.3-11.858-4.167Zm119.864-9.111,10.53,9.569,17.124-28.57-20.42-3.663ZM30.4,138.422l13.278,5.54,6.456-19.321-13.186-4.075Zm79.391,2.106,14.971-4.258,7.005-9.248-27.1-6.914ZM77.6,131.555l23.624,8.287L95.64,117.727,82.179,113.7Zm-59.2,1.831,9.8,4.075,13.186-35.895L28.519,97.72Zm37.132-9.569,19.779,6.913,4.533-17.764L61.027,107.38Zm97.7,3.663,8.561,2.2,4.35-13.507-9.019-3.022ZM25.543,59.49,4.62,123.68l9.844,5.54L34.517,58.665ZM137.99,123.634l12.911,3.3,3.938-14.513L143.9,108.754ZM122.652,93.553l-8.974,5.174,5.678,20.053,13.873,3.525L145.5,91.585ZM37.859,118.231c2.747.87,9.478,2.976,13.095,4.075l5.448-16.3L43.72,102.253Zm63.229-12.224,2.2,8.745,13.277,3.388-5.082-18.131Zm43.678.458,22.114,7.372,7.1-22.114-20.145-7.967Zm-71.927-.641,21.473,6.364L88.955,91.036Zm104.526,2.015,7.875,1.419,15.2-9.02c.733-3.479,2.335-10.713,4.075-18.726l-17.4-4.121ZM48.619,70.02,42.392,96.759,70.092,105,88.314,88.38l-4.9-19.367Zm47.3,15.43,4.578,18.085,19.962-11.492c-2.381-3.2-9.34-12.453-11.492-15.338Zm107.411,13L213.9,92.18l-7.28-8.882ZM29.847,93.05l10.21,3.022L44.04,78.948,34.7,75.972Zm81.13-17.764,11.858,15.8,23.625-2.014.458-1.144L122.744,67.365Zm43.77,6.181,20.008,7.921,4.578-14.33L160.1,68.051Zm-16.253-3.891,9.386,7.966,7.829-19.687-5.906-4.3ZM93.579,76.293l1.694,6.639,12.179-8.2-4.258-5.356ZM187.85,75.1l17.169,4.029c2.473-11.171,5.082-23.121,6.135-28.066l-14.743-2.747ZM39.736,58.162l-4.395,15.43,9.248,2.976,4.487-19.275Zm77.33,1.236,19.55,16.574,11.217-15.887L131.992,48.639Zm-11.9,8.516c1.373,1.74,3.3,4.167,4.3,5.448l11.309-7.646-5.769-4.9Zm55.811-2.106,19.092,6.913,2.93-9.2c-3.846-1.923-10.531-5.4-17.4-9.34ZM84.56,40.26l7.783,30.9,21.564-15.521-5.952-19.87Zm-32.919,16.8-2.473,10.53,33.606-1.007L79.707,54.408ZM134.1,47.128,156.67,63.473l4.67-11.767a109.51,109.51,0,0,1-14.972-10.256,23.062,23.062,0,0,1-1.831-1.831ZM148.337,36.6a14.114,14.114,0,0,0,1.19,1.145c8.47,7.279,26.875,16.986,34.98,21.107L189.91,42,167.933,19.794ZM36.165,21.077l3.8,32.187,11.355-1.1-4.3-32.69ZM113.724,38.2l4.35,14.467,10.988-7.875-4.533-11.767ZM53.747,51.935,78.516,49.6l-1.19-4.761L51.641,35.865ZM10.663,9.4l.961,14.559L34.746,50.516,29.573,7.066ZM197.922,43.6l14.147,2.656,3.3-20.145L204.24,23.869ZM118.9,11.6l12.224,31.683,10.484-7.554c-6.364-9.661-11.538-25.685-14.33-35.483ZM49.443,19.108l1.831,14.056L76.593,42,70.046,16.04Zm122.2-2.518L191.6,36.781l8.607-26.967L187.254,3.175Zm-62.129,7.692,3.479,11.538,10.668-5.128-6.5-16.8Zm28.2-7.784a86.729,86.729,0,0,0,7.692,16.253l7.646-6.593L146.277,13.2Zm10.851-4.258,6.41,12.27,9.432-8.15L156.121,9.31ZM34.425,6.471,35.89,18.65l33.561-4.944L66.612,2.534Z" transform="translate(0)" fill="url(#a)"/></g></g><g transform="translate(123.76 96.356)"><path d="M10.823,28.2l0,0L2.328,17.523A10.711,10.711,0,0,1,0,10.823,10.836,10.836,0,0,1,10.823,0a11.186,11.186,0,0,1,5.052,1.255,10.634,10.634,0,0,1,5.77,9.568,10.713,10.713,0,0,1-2.325,6.7l-8.5,10.68Zm0-23.8a5.411,5.411,0,1,0,5.412,5.411A5.417,5.417,0,0,0,10.823,4.406Z" transform="translate(0 0)" fill="#4a77c3"/></g><g transform="translate(46.15 54.17)"><path d="M5.54,14.436h0L1.192,8.97A5.483,5.483,0,0,1,0,5.54,5.546,5.546,0,0,1,5.54,0,5.726,5.726,0,0,1,8.126.642a5.443,5.443,0,0,1,2.954,4.9A5.484,5.484,0,0,1,9.89,8.968L5.541,14.435Zm0-12.181a2.77,2.77,0,1,0,2.77,2.77A2.773,2.773,0,0,0,5.54,2.256Z" transform="translate(0 0)" fill="#4a77c3"/></g><g transform="translate(140.004 22.885)"><path d="M5.54,14.436h0L1.192,8.97A5.483,5.483,0,0,1,0,5.54,5.546,5.546,0,0,1,5.54,0,5.726,5.726,0,0,1,8.126.642a5.443,5.443,0,0,1,2.954,4.9A5.484,5.484,0,0,1,9.89,8.968L5.541,14.435Zm0-12.181a2.77,2.77,0,1,0,2.77,2.77A2.773,2.773,0,0,0,5.54,2.256Z" transform="translate(0 0)" fill="#4a77c3"/></g><g transform="matrix(1, 0, 0, 1, -36, -28)" filter="url(#b)"><path d="M501.829,1874.449l-25.758,19.1-27.639,21.028,9.963,38.816,35.666,8.582" transform="translate(-323.31 -1809.25)" fill="none" stroke="#00d199" stroke-linecap="round" stroke-width="2"/></g><g transform="matrix(1, 0, 0, 1, -36, -28)" filter="url(#d)"><path d="M388.427,1926.126l33.241-1.249,2.712,8.953" transform="translate(-299.41 -1829.34)" fill="none" stroke="#00d199" stroke-linecap="round" stroke-width="2"/></g></g><g fill="#fff" stroke="#707070" stroke-width="1" opacity="0"><rect width="300" height="250" stroke="none"/><rect x="0.5" y="0.5" width="299" height="249" fill="none"/></g></svg>